<?xml version="1.0"?>
<svg xmlns="http://www.w3.org/2000/svg" version="1.2" baseProfile="tiny" viewBox="0 0 800 607" stroke-linecap="round" stroke-linejoin="round">
<g id="highways" fill="none" stroke="black" stroke-width="1">
<path d="M 531.5 324.49 534.78 331.39 535.57 333.31 535.6 333.74 535.68 334.77"/>
<path d="M 249.2 344.15 249.18 343.78 246.82 337.47 226.05 333.08"/>
<path d="M 517.59 300.48 517.84 298.99"/>
<path d="M 563 385.45 572.84 379.22 575.22 377.39 576.45 376.4 577.7 375.39"/>
<path d="M 577.7 375.39 577.11 377.01"/>
<path d="M 536.96 393.25 557.06 393.27"/>
<path d="M 589.06 366.2 596.82 359.63"/>
<path d="M 533.01 210.15 534.53 203.06 534.91 195.32"/>
<path d="M 563 385.45 569.98 385.14 575.38 394.29"/>
<path d="M 526.21 205.32 527.07 206.25"/>
<path d="M 682.76 263.01 682.41 262.71"/>
<path d="M 590.83 362.72 582.18 367.59 571.35 365.7 567.2 360.96"/>
<path d="M 699.08 297.87 695.79 299.48 694.5 300.11 690.52 302"/>
<path d="M 290.56 391.02 307.52 396.49"/>
<path d="M 310.73 342.84 313.66 346.53"/>
<path d="M 517.11 323.11 515.45 322.75 517.99 320.8"/>
<path d="M 1 317.13 20.18 310.11 41.03 300.41 56.17 296.64 67.68 296.73"/>
<path d="M 608.32 305.26 608.59 304.67"/>
<path d="M 528.71 201.7 527.34 202.95"/>
<path d="M 555.72 333.24 549.92 332.97 535.73 326.36"/>
<path d="M 309.49 398.85 311.71 393.23 327.63 389.71"/>
<path d="M 531.4 332.6 535.68 334.77 553.47 346.58"/>
<path d="M 622.22 335.3 625.1 334.23"/>
<path d="M 574.72 375.49 574.24 374.61"/>
<path d="M 137.54 303.97 132.72 297.54 130.62 295.64 129.84 295.06 129.29 294.69 129.08 294.56 126.94 293.3 120.85 290.9 119.95 290.68 119.49 290.58 118.79 290.45 115.99 290.16 107.9 291.6"/>
<path d="M 324.15 342.17 321.66 336.97"/>
<path d="M 538.39 192.31 529.04 189.32"/>
<path d="M 327.44 388.85 317.65 387.48 311.8 378.71"/>
<path d="M 602.32 309.22 610.3 311.5"/>
<path d="M 609.13 306.92 608.44 305.79"/>
<path d="M 609.63 305.12 609.45 306.07"/>
<path d="M 621.1 337.23 621.58 335.78"/>
<path d="M 309.73 391.71 309.36 390.81"/>
<path d="M 75.52 297.48 96.02 300.35"/>
<path d="M 73.24 293.29 75.61 291.1"/>
<path d="M 231.85 344.16 231.81 344.53 236.31 350.75 243.38 352.81 248.58 358.08"/>
<path d="M 211.42 330.67 222.97 334.34 227 344.26 227.36 344.63"/>
<path d="M 528.47 186.51 527.31 193.13 527.71 199.1 528.11 201.18 528.51 202.99"/>
<path d="M 520.83 293.46 519.19 292.18 518.56 285.22"/>
<path d="M 511.71 293.95 513.57 295.05 515.79 300.1"/>
<path d="M 695.98 302.3 693.82 302.61"/>
<path d="M 614.6 325.39 614.24 339.4 609.94 346.21 602.69 353.21"/>
<path d="M 695 299.05 699.08 297.87"/>
<path d="M 515.45 322.75 513.47 323.06"/>
<path d="M 554.58 345.42 551.27 335.97 551 334.57 550.91 334.16 549.92 332.97"/>
<path d="M 671.81 474.54 680.42 469.8"/>
<path d="M 311.29 378.71 309.49 382.73 297.47 389.77 292.46 389.95"/>
<path d="M 670.42 475.57 672.35 477.86"/>
<path d="M 513.2 327.45 514.23 323.07 516.2 325.2"/>
<path d="M 529.19 198.78 531.25 198.91"/>
<path d="M 575.03 373.51 578.47 372.53"/>
<path d="M 310.67 388.97 310.92 389.73"/>
<path d="M 580.41 396.13 580.77 388.11"/>
<path d="M 629.45 349.36 632.61 333.74 637.91 329.7"/>
<path d="M 528.22 202.84 529.48 201.65 530.8 200.19"/>
<path d="M 588.31 407.25 582.81 396.43 582.44 388.08 584.8 370.81 589.06 366.2"/>
<path d="M 668.62 465.62 669.89 466.11"/>
<path d="M 608.99 304.11 609.52 304.58"/>
<path d="M 668.21 466.3 667.04 466.23"/>
<path d="M 612.57 347.52 623.03 346.23 630.06 353.83"/>
<path d="M 307.52 396.49 308.97 398.88"/>
<path d="M 564.98 360.08 568.28 367.66 563.89 382.9 554.52 387.92"/>
<path d="M 673.59 309.83 662.66 315.18"/>
<path d="M 551.27 335.97 554.16 334.04"/>
<path d="M 382.95 340.91 380.33 338.95"/>
<path d="M 709.71 292.81 693.8 291.83 688.12 286.94"/>
<path d="M 610.63 310.59 615 302.06"/>
<path d="M 687.56 287.19 688.87 292.07 681.47 305.45 677.81 307.82"/>
<path d="M 309.68 389.79 310.03 389"/>
<path d="M 517.75 328.96 517.1 331.89"/>
<path d="M 513.04 333.29 516.31 332.55 521.9 330.01"/>
<path d="M 624.22 339.85 621.26 340.95"/>
<path d="M 527.31 193.13 524.7 198.28 522.26 200.34"/>
<path d="M 671.42 467.29 669.6 468.4"/>
<path d="M 576.04 377.58 572.84 379.22"/>
<path d="M 607.44 299.64 603.88 307.74"/>
<path d="M 57.96 287.69 51.41 287.58 41.28 288.87 31.32 284.42 29.29 279.11"/>
<path d="M 250.7 357.18 249.94 352.11 261.17 343.89"/>
<path d="M 682.3 308.28 689.77 307.51 700.47 312.98"/>
<path d="M 517.36 285.49 513.43 292.61 511.94 293.5"/>
<path d="M 534.78 331.39 531.56 332.28"/>
<path d="M 582.2 396.24 582.44 388.08"/>
<path d="M 701.46 313.48 701.71 309.98 713.86 293.08"/>
<path d="M 624.22 339.85 629.23 350.78"/>
<path d="M 663.37 452.95 664.9 457.13 667.53 464.6 668.21 466.3"/>
<path d="M 676.48 536.77 673.78 522.22"/>
<path d="M 563.76 174.03 562.37 177.94 558.85 182.28 542.98 190.18"/>
<path d="M 68.27 297.53 69.89 296.94 71.1 296.52 72.06 295.97 72.65 295.38 72.98 294.88 73.24 293.29 71.96 290.83 71.61 290.24"/>
<path d="M 71.66 290.78 71.96 290.83 75.61 291.1 82.64 288.52"/>
<path d="M 157.96 239.82 142.53 249.06"/>
<path d="M 384.52 366.72 379.65 371.71 356.18 377.73 350.49 382.1 350.24 383.25 349.99 386.35 349.75 389.68 349.62 391.34 345.77 396.96 333.86 404.14 317.37 408.89 310.67 415.7"/>
<path d="M 672.36 476.1 674 476.46 677.9 476.4 681 475.55 685.32 473.03 686.86 472.12 694.61 467.64"/>
<path d="M 306.74 450.21 308.62 450.74"/>
<path d="M 603.42 193.26 600.98 193.43 600.29 193.44 599.72 193.43 599.03 193.39 598.21 193.33 597.17 193.24 594.71 192.53 583.43 187.27"/>
<path d="M 603.42 193.26 603.02 185.36"/>
<path d="M 558.78 352.91 551.36 377.32 546.25 380.95"/>
<path d="M 395.72 263.8 392.15 264.52 388.49 266.27"/>
<path d="M 68.98 290.3 72.34 292.2"/>
<path d="M 504.42 327.66 513.79 328.09"/>
<path d="M 682.2 549.02 679.29 548.29"/>
<path d="M 671.85 475.96 672.36 476.1"/>
<path d="M 679.85 550.28 682.2 549.02"/>
<path d="M 384.52 366.72 380.67 341.33"/>
<path d="M 727.89 284.54 703.05 296.66 696.16 299.96 694.52 300.73 689.13 303.29 669.62 312.63 644.07 324.71"/>
<path d="M 102.85 295.68 111.08 294.39 121.87 295.66 134.28 304.56"/>
<path d="M 579.24 400.52 583.39 405.58 584.3 406.37 597.92 418.18 609.5 433.22 615.61 439.1 650.18 460.68 667.04 466.23"/>
<path d="M 71.61 290.24 57.96 287.69 48.94 288.1 41.38 290.23 36.68 292.92"/>
<path d="M 365.47 271.18 352.95 289.31 351.54 296.23"/>
<path d="M 311.53 374.49 311.29 378.71 310.03 389"/>
<path d="M 310.16 451.2 311.05 451.43"/>
<path d="M 271.68 193.35 257.98 191.89 252.12 191.1 235.77 187.34 146.58 171.65 141.67 170.79"/>
<path d="M 731.26 177.79 705.86 170.05 687.71 167.19"/>
<path d="M 141.18 275.09 126.65 283.82 107.9 291.6"/>
<path d="M 131.45 284.74 142.77 276.41"/>
<path d="M 575.42 374.11 575.03 373.51"/>
<path d="M 533.88 168.25 529.29 183.44"/>
<path d="M 107.9 291.6 94.08 296.06 78.27 296.55"/>
<path d="M 545.28 70.98 546.52 74.05"/>
<path d="M 546.89 74.63 548.41 73.89"/>
<path d="M 586.41 67.18 585.24 65.98"/>
<path d="M 523.65 87.06 523.42 87.47 523.14 87.85"/>
<path d="M 582.59 67.32 583.27 68.2"/>
<path d="M 552.35 57.58 552.22 58.57"/>
<path d="M 668.61 58.88 665.72 59.98"/>
<path d="M 538.3 90.82 531.1 90.96 524 87.51"/>
<path d="M 547.93 70.44 545.91 70.9"/>
<path d="M 515.85 84.75 517.88 85.35"/>
<path d="M 442.66 147.59 444.48 145.53"/>
<path d="M 335.8 167.51 336.45 168.17 335.63 171.76 325.4 175.74"/>
<path d="M 326.33 127.89 327.44 129.35"/>
<path d="M 327.77 129.53 329.85 127.89"/>
<path d="M 442.64 147.11 442.22 146.95 435.16 146.31 434.11 146.06 429.33 145.11 422.34 145.04"/>
<path d="M 444.08 142.7 447.7 142.65"/>
<path d="M 576.65 91.65 575.67 91.74"/>
<path d="M 467.77 135.98 467.78 136.37 467.81 137.49 467.69 138.03 467.44 138.68 467.21 139.07 466.72 139.57 464.45 140.49 463.25 140.68 462.76 140.7 461.63 140.69"/>
<path d="M 359.89 91.14 363.56 100.59"/>
<path d="M 252.63 225.37 267.77 222.26"/>
<path d="M 364.14 107.45 363.31 116.03"/>
<path d="M 454.11 139.06 450.63 138.3 449.23 138.16 447.95 138.18"/>
<path d="M 441.8 138.58 434.67 145.15"/>
<path d="M 330.39 127.5 328.92 126.27"/>
<path d="M 328.32 126.1 326.09 127.55"/>
<path d="M 451.59 220.9 453.25 219.95"/>
<path d="M 455.81 139.29 454.11 139.06 457.85 136.62"/>
<path d="M 272.64 220.13 282.46 212.65"/>
<path d="M 364.45 82.26 368.45 78.01 370.03 79.6"/>
<path d="M 311.88 183.1 290.61 191.09 283.5 191.79"/>
<path d="M 523.32 155.8 516.92 148.51"/>
<path d="M 207.2 242.22 187.41 244.29"/>
<path d="M 181.46 256.1 196.61 254.72 202.12 250.52"/>
<path d="M 568.09 90.66 564.19 89.68"/>
<path d="M 298.62 193.19 300.34 192.69"/>
<path d="M 263.88 219.94 253.73 224.62"/>
<path d="M 424.43 145.82 440.43 146.97 442.32 149.37"/>
<path d="M 617.41 89.38 628.99 90.68"/>
<path d="M 361.45 164.46 347.3 166.46 344.8 169.05"/>
<path d="M 286.31 192.44 294.76 198.09 296.11 198.33 297.48 198.37 301.45 197.95 306.82 194.75"/>
<path d="M 449.78 138.59 444.77 141.5"/>
<path d="M 371.88 115.67 364.92 111.5"/>
<path d="M 367.9 116.19 369.17 119.21"/>
<path d="M 326.71 175.76 344.14 173.55"/>
<path d="M 512.49 136.47 512.68 134.6 512.89 130.96"/>
<path d="M 549.48 74.2 548.34 70.9"/>
<path d="M 514.88 96.34 517.05 96.95 519.49 97.4 522.51 97.53 523.08 97.53 524.73 97.38"/>
<path d="M 186.28 244.07 185.18 251.17 180.72 255.34"/>
<path d="M 515.79 134.18 516.68 132.23"/>
<path d="M 201.47 246.23 204.12 249.74"/>
<path d="M 513.42 132.3 512.84 131.63 512.47 131.23 511.94 130.27 509.9 123.17"/>
<path d="M 402.73 202.49 403.24 202.2"/>
<path d="M 294.89 200.98 296.58 198.87"/>
<path d="M 472.4 135.68 468.13 135.97 467.77 135.98 464.11 136.09 463.01 136.07 462.57 136.06 461.09 136.09 459.82 136.11 453.33 136.24"/>
<path d="M 444.81 141.94 450.06 140.85"/>
<path d="M 518.95 78.09 517.59 78.9"/>
<path d="M 461.68 140.97 462.8 142.09"/>
<path d="M 463.11 137.98 464.5 136.49"/>
<path d="M 643.41 89.24 629.5 87.61 628.91 87.62"/>
<path d="M 194.56 247.81 195.97 247.79"/>
<path d="M 351.19 173.36 353.21 172.56 353.41 172.06"/>
<path d="M 582.63 71.86 581.06 71.15"/>
<path d="M 336.45 168.17 339.91 171.03 341.58 172.26 348.95 172.09"/>
<path d="M 580.26 94.05 595.88 90.11"/>
<path d="M 356.94 172.82 353.36 171.51 353.17 171.41 352.98 171.26 352.74 170.9 353.26 169.6"/>
<path d="M 346.54 169.85 348.73 169.93"/>
<path d="M 192.93 249.3 192.54 247.31"/>
<path d="M 146.49 172 146.58 171.65"/>
<path d="M 347.3 166.46 338.53 167.69"/>
<path d="M 283.47 211.4 269.16 217.38 267.97 217.92"/>
<path d="M 267.97 217.92 267.45 218.17 263.88 219.94"/>
<path d="M 185.14 243.13 186.28 244.07 192.54 247.31 194.1 248.06"/>
<path d="M 194.56 247.81 187.41 244.29 185.14 243.13"/>
<path d="M 181.29 239.83 172.55 231.71"/>
<path d="M 513.72 101.63 515.31 97.53 515.8 96.74 515.96 96.48 516.17 96.17 516.95 95.15 517.62 94.36 519.67 92.41"/>
<path d="M 444.29 182.24 443.96 174.53"/>
<path d="M 423.32 185.55 423.36 180.11"/>
<path d="M 509.59 112.03 504.76 119.44 505.25 124.09"/>
<path d="M 422.75 172.56 422.86 180.06"/>
<path d="M 439.67 189.79 434.11 192.13"/>
<path d="M 434.11 192.13 439.81 190.04"/>
<path d="M 515.36 152.1 524.49 157.74"/>
<path d="M 244.07 289.24 247.15 247.77 247.2 247.24 247.99 239.01 254.18 230.03 265.27 223.41"/>
<path d="M 265.27 223.41 252.99 230.19 247.71 237.55 246.52 247.22"/>
<path d="M 568.09 90.66 573.04 89.33"/>
<path d="M 363.73 126.9 364.7 139.3"/>
<path d="M 441.59 124.9 441.07 124.91 436.12 125.16"/>
<path d="M 260.78 102.82 261.22 102.97"/>
<path d="M 588.61 90.1 573.61 89.22"/>
<path d="M 567.53 92.44 574.12 95.82 579.66 94.2"/>
<path d="M 517.88 85.35 518.96 92.13"/>
<path d="M 463.01 148.53 467.41 156.39"/>
<path d="M 423.36 180.11 439.2 182.42"/>
<path d="M 120.84 163.09 129.16 166.85"/>
<path d="M 364.14 107.45 364.53 112.05 365.82 115.58 366.99 117.15"/>
<path d="M 426.84 258.16 428.11 256.56 433.26 245.45 440.26 236.51"/>
<path d="M 451.41 219.98 449.87 224.89 441.45 234.64"/>
<path d="M 328.32 126.1 328.15 127.5 328.12 127.89 327.44 129.35 321.13 135.36 320.8 135.68 315.15 141.15"/>
<path d="M 567.39 85.52 580.47 71.76"/>
<path d="M 587.95 60.28 587.73 60.68"/>
<path d="M 515.59 59.97 499.44 58.95"/>
<path d="M 465.54 56.56 472.64 60.45"/>
<path d="M 512.29 46.34 529.63 48.64 536.87 51.81"/>
<path d="M 516.75 127.35 511.8 127.06"/>
<path d="M 521.87 137.22 540.22 154.36 544.73 160.46"/>
<path d="M 463.01 148.53 463.31 141.84"/>
<path d="M 462.77 135.12 462.57 136.06 462.58 136.59"/>
<path d="M 520.09 80.11 519.2 79.67"/>
<path d="M 519.06 80.1 523.65 87.06"/>
<path d="M 467.17 138.47 463.54 139.11"/>
<path d="M 508.43 117.34 507.09 121.63 506.35 123.14 506.26 123.26 505.44 124.4 504.58 125.6 503.72 126.46"/>
<path d="M 191.57 62.46 193.37 50.93 199.52 33.94 196.66 14.3"/>
<path d="M 573.01 161.01 575.1 158.68"/>
<path d="M 586.53 142.27 588.55 139.72"/>
<path d="M 465.89 56.15 455.63 43.95"/>
<path d="M 699.48 53.2 696.77 39.36 689.85 26.15 689.03 20.19 700.44 1"/>
<path d="M 408.32 209.88 407.99 209.65 403.24 202.2 397.73 197.64 376.67 187.87 363.01 174.72 356.94 172.82 353.41 172.06 352.82 171.93 350.69 171.49 349.8 171.26 348.9 170.94 346.54 169.85 344.8 169.05"/>
<path d="M 554.65 59.16 555.08 58.21"/>
<path d="M 524.95 96.76 527.44 95.88 528.93 95.29 531.58 94.18 532.49 93.79 532.8 93.67 537.11 92.85"/>
<path d="M 541.53 90.24 541.2 90.57 540.7 91.04 540.32 91.38 539.04 91.89 537.36 92.04 532.78 92.15"/>
<path d="M 603.16 182.83 602.37 170.6 602.28 169.43"/>
<path d="M 581.47 96.26 590.17 118.67"/>
<path d="M 516.05 60.48 533.04 62.82"/>
<path d="M 590.77 118.53 582.24 96.35 581.99 96.01"/>
<path d="M 642.95 74.56 630.84 82.1 629.18 84.27 628.91 87.62 628.99 90.68"/>
<path d="M 517.46 128.77 516.95 127.77 516.75 127.35"/>
<path d="M 494.61 80.99 498.06 81.57"/>
<path d="M 542.73 83.88 535.55 90.66 524 87.51 519.51 85.54 517.53 84.79"/>
<path d="M 566.12 133.74 572.45 135.19"/>
<path d="M 638.53 146.88 626.69 142.17"/>
<path d="M 399.55 59.66 435.74 32.37"/>
<path d="M 492.74 50.14 496.57 48.76"/>
<path d="M 493.77 49.13 492.74 50.14"/>
<path d="M 517.46 128.77 516.94 131.69"/>
<path d="M 489.7 80.09 494.61 80.99"/>
<path d="M 521.87 137.22 515.79 134.18"/>
<path d="M 519.67 92.41 527.81 93.85"/>
<path d="M 523.57 133.38 516.94 131.69"/>
<path d="M 523.32 133.95 534.77 137.4 540.55 136.75"/>
<path d="M 565.86 133.06 558.51 132.95"/>
<path d="M 507.36 94.45 508.6 95.64"/>
<path d="M 508.6 95.64 508.05 94.62"/>
<path d="M 508.05 94.62 508.17 94.18 508.86 93.24 515.85 84.75"/>
<path d="M 511.54 48.35 513.3 51.26"/>
<path d="M 486.52 84.71 493.48 91.01 499.19 92.44"/>
<path d="M 507.58 94.06 499.2 92.04"/>
<path d="M 343.99 56.44 352.11 59.41 357.73 64.66 359.91 66.16 361 66.54 361.77 66.8 363.03 67.15 366.49 67.52 367.94 67.45 369.03 67.28 371.1 66.77"/>
<path d="M 506.86 35.97 522.39 39.72 556.69 50.96"/>
<path d="M 584.39 67.28 584.08 67.1 555.08 58.21 554.2 57.78"/>
<path d="M 536.87 51.81 552.22 58.57"/>
<path d="M 547.7 72.55 547.28 72.14 545.91 70.9 533.45 62.28"/>
<path d="M 557.89 92.97 565.58 92.61"/>
<path d="M 555.85 92.87 557.89 92.97"/>
<path d="M 555.64 92.3 551.17 91.73"/>
<path d="M 557.93 92.46 555.64 92.3"/>
<path d="M 567.53 92.44 567.73 92.43"/>
<path d="M 565.58 92.61 567.53 92.44"/>
<path d="M 565.13 92.09 557.93 92.46"/>
<path d="M 567.04 91.93 565.13 92.09"/>
<path d="M 581.04 91.28 595.88 90.11 617.41 89.38 627.98 89.65"/>
<path d="M 575.67 91.74 581.04 91.28"/>
<path d="M 578.54 90.88 574.38 91.3"/>
<path d="M 574.38 91.3 571.73 91.52 567.04 91.93"/>
<path d="M 645.14 71.36 645 63.64"/>
<path d="M 639.84 64.37 645 63.64"/>
<path d="M 600.76 66.64 632.41 65.47 639.84 64.37"/>
<path d="M 674.28 58.51 699.62 53.7"/>
<path d="M 651.49 62.27 657.26 61.17"/>
<path d="M 651.32 61.77 644.89 63.15"/>
<path d="M 657.14 60.68 651.32 61.77"/>
<path d="M 420.62 145.35 422.36 145.56"/>
<path d="M 420.61 144.86 412.35 144.98"/>
<path d="M 422.34 145.04 420.61 144.86"/>
<path d="M 422.36 145.56 424.43 145.82"/>
<path d="M 399.59 148.44 420.62 145.35"/>
<path d="M 398.15 148.78 399.59 148.44"/>
<path d="M 398.08 148.29 394.26 149.21"/>
<path d="M 399.54 147.94 398.08 148.29"/>
<path d="M 349.12 170.34 361.78 164.82"/>
<path d="M 346.5 171.03 349.12 170.34"/>
<path d="M 348.73 169.93 345.71 170.65"/>
<path d="M 350.91 170.93 353.26 169.6 361.97 165.04"/>
<path d="M 348.95 172.09 350.91 170.93"/>
<path d="M 340.02 172.27 342.39 171.86"/>
<path d="M 342.39 171.86 346.5 171.03"/>
<path d="M 339.39 171.86 325.4 175.74 313.05 182.33"/>
<path d="M 342.09 171.4 339.39 171.86"/>
<path d="M 298.79 194.46 296.48 197.64"/>
<path d="M 300.34 192.69 298.79 194.46"/>
<path d="M 301 192.85 312.21 183.5"/>
<path d="M 299.67 194.33 301 192.85"/>
<path d="M 307.88 192.66 312.21 183.5"/>
<path d="M 306.82 194.75 307.19 194.14 307.67 193.26 307.88 192.66"/>
<path d="M 312.33 193.4 311.65 193.34 309.9 193.44 305.56 193.56 302.49 193.48 300.57 193.34 299.79 193.28 298.62 193.19 283.5 191.79"/>
<path d="M 269.86 219.09 282.46 212.65"/>
<path d="M 267.83 219.96 269.86 219.09"/>
<path d="M 267.88 219.54 253.73 224.62 232.97 231.08 207.2 242.22 195.97 247.79 192.93 249.3 180.72 255.34 141.18 275.09"/>
<path d="M 269.61 218.75 267.88 219.54"/>
<path d="M 196.36 249.16 197.07 249.49 202.12 250.52 215.12 245.65 224.49 245.41"/>
<path d="M 194.1 248.06 196.36 249.16"/>
<path d="M 197.41 249.13 194.56 247.81"/>
<path d="M 40.74 294.28 51.06 296.47 67.68 296.73"/>
<path d="M 75.52 297.48 94.82 297.83 102.85 295.68"/>
<path d="M 67.68 296.73 75.52 297.48"/>
<path d="M 82.64 288.52 71.61 290.24"/>
<path d="M 70.38 295.75 48.53 295.4 41.7 293.58"/>
<path d="M 78.27 296.55 70.38 295.75"/>
<path d="M 459.82 136.11 451 137.91"/>
<path d="M 451 137.91 449.78 138.59"/>
<path d="M 462.29 139.92 464.01 139.82 465.29 139.68 479.29 136.63 489.91 134.02 504.73 128.45"/>
<path d="M 451.23 143.26 457.97 141.32"/>
<path d="M 447.7 142.65 449.34 143.11 451.23 143.26"/>
<path d="M 443.07 142.75 444.81 141.94 450.41 140.32 454.26 140.06"/>
<path d="M 441.23 143.51 443.07 142.75"/>
<path d="M 443.04 142.2 441.2 142.98"/>
<path d="M 441.2 142.98 435.17 145.19"/>
<path d="M 431.39 146.2 432.41 146.11"/>
<path d="M 436.48 145.32 441.23 143.51"/>
<path d="M 457.85 136.62 461.22 136.6 462.58 136.59"/>
<path d="M 449.38 141.18 450.06 140.85 454.26 140.06"/>
<path d="M 455.81 139.29 449.15 140.02 444.77 141.5"/>
<path d="M 463.54 139.11 462.28 139.15"/>
<path d="M 511.85 131.75 509.64 123.35"/>
<path d="M 512.89 130.96 516.95 127.77"/>
<path d="M 510.19 116.83 510.57 112.86"/>
<path d="M 510.09 117.72 510.19 116.83"/>
<path d="M 508.68 116.52 508.43 117.34"/>
<path d="M 504.73 128.45 505.65 127.7 506.79 126.56 507.56 125.44 507.97 124.62 509.63 117.48"/>
<path d="M 509.85 134.24 510.72 136.9"/>
<path d="M 506.06 117.72 505.22 121.84"/>
<path d="M 506.41 123.65 506.6 124.31"/>
<path d="M 506.15 122.61 506.41 123.65"/>
<path d="M 506.72 127.11 507.48 128.7"/>
<path d="M 505.25 124.09 505.58 124.86"/>
<path d="M 641.39 148 638.53 146.88"/>
<path d="M 638.25 147.13 641.1 148.3"/>
<path d="M 550.54 92.58 554.97 92.83"/>
<path d="M 513.72 101.63 517.88 98.43 518.27 98.34 524.95 96.76"/>
<path d="M 509.75 112.2 508.68 116.52"/>
<path d="M 508.05 94.62 508.76 94.8 514.88 96.34"/>
<path d="M 527.81 93.85 525.09 95.91"/>
<path d="M 547.9 91.3 544.08 91.01 542.51 90.99 540.4 91.08 539.32 91.17 535.8 91.83 534.38 92.24 533.43 92.56 531.7 93.25 528.78 94.48"/>
<path d="M 528.78 94.48 525.09 95.91"/>
<path d="M 432.41 146.11 434.02 146 437.08 145.37"/>
<path d="M 437.08 145.37 441.25 143.86"/>
<path d="M 686.37 473.34 707.49 496.82 714.56 507.21"/>
<path d="M 684.72 472.1 686.37 473.34"/>
<path d="M 685.31 471.72 679.47 468.77 669.89 466.11"/>
<path d="M 687.03 473.05 685.31 471.72"/>
<path d="M 670.07 466.97 671.42 467.29 680.42 469.8 684.72 472.1"/>
<path d="M 667.04 466.23 670.07 466.97"/>
<path d="M 666.58 465.24 664.36 464.74 655.32 462.05 645.01 456.64 615.9 438.15 604.84 424.33 588.31 407.25"/>
<path d="M 669.89 466.11 666.58 465.24"/>
<path d="M 534.69 167.88 532.2 163.29"/>
<path d="M 532.2 163.29 523.32 155.8 516.93 150.53"/>
<path d="M 512.49 138.42 512.49 136.47"/>
<path d="M 515.63 149.12 512.49 138.42"/>
<path d="M 510.71 132.2 511.34 134.88 511.48 138.54"/>
<path d="M 515.33 150.15 516.61 151.46"/>
<path d="M 516.93 150.53 515.63 149.12"/>
<path d="M 540.08 90.63 538.3 90.82 534.74 91.6"/>
<path d="M 534.74 91.6 531.53 91.7 530.42 91.47 527.78 90.68"/>
<path d="M 511.07 111.15 513.11 103.79"/>
<path d="M 567.21 54.44 587.73 60.68"/>
<path d="M 597.56 58.9 587.95 60.28"/>
<path d="M 587.95 60.28 567.21 54.44"/>
<path d="M 587.73 60.68 597.56 58.9"/>
<path d="M 511.48 138.54 511.56 142.28 515.33 150.15"/>
<path d="M 510 110.98 509.59 112.03"/>
<path d="M 388.31 117.45 411 120.18 420.66 120.11"/>
<path d="M 365.05 116.34 367.9 116.19"/>
<path d="M 364.83 115.95 363.31 116.03"/>
<path d="M 367.63 115.8 364.83 115.95"/>
<path d="M 440.8 119.66 441.07 124.91 441.08 125.19"/>
<path d="M 370.2 264.31 369.77 264.93"/>
<path d="M 361.87 68.62 360.73 66.88 359.85 65.84 356.5 62.58"/>
<path d="M 294.85 40.97 307.71 53.46 317.38 58.3"/>
<path d="M 531.84 164.05 533.88 168.25"/>
<path d="M 534.6 236 533.62 240.72"/>
<path d="M 533.62 240.72 531.02 252.99"/>
<path d="M 547.69 240.76 548.01 238.15"/>
<path d="M 548.01 238.15 547.9 231.79"/>
<path d="M 536.52 231.37 536.29 217.03"/>
<path d="M 535.12 233.67 534.6 236"/>
<path d="M 535.75 230.9 535.12 233.67"/>
<path d="M 535.33 237.05 536.11 233.33"/>
<path d="M 534.49 241.1 535.33 237.05"/>
<path d="M 533.3 212.83 535.46 217.26"/>
<path d="M 535.46 217.26 536.28 220.35 535.75 230.9"/>
<path d="M 536.11 233.33 536.52 231.37"/>
<path d="M 528 202.5 527.39 203.27"/>
<path d="M 530.62 199.56 528.71 201.7 528 202.5"/>
<path d="M 536.29 217.03 534.57 213.21"/>
<path d="M 534.57 213.21 533.01 210.15 530.4 204.14 529.96 202.5 529.48 200.4 529.19 198.78 529.04 189.32 530.32 183.61"/>
<path d="M 534.03 195.77 531.25 198.91 530.62 199.56"/>
<path d="M 530.75 199.92 534.91 195.32"/>
<path d="M 527.46 203.7 528.22 202.84 530.75 199.92"/>
<path d="M 523.52 208.1 505.29 217.35 488.25 220.57 464.35 219.98"/>
<path d="M 687.71 167.19 681.22 164.55"/>
<path d="M 681.22 164.55 652.35 152.52"/>
<path d="M 516.61 151.46 524.49 157.74 531.84 164.05"/>
<path d="M 363.54 92.56 363.75 85.9"/>
<path d="M 363.97 82.58 364.54 75.68 365 73.74 365.58 72.54 374.74 66.8 383.65 65.56"/>
<path d="M 363.75 85.9 363.97 82.58"/>
<path d="M 364.21 85.6 364.45 82.26"/>
<path d="M 363.68 74.05 363.49 73.09 363.32 72.38 361.87 68.62"/>
<path d="M 367.21 65.58 354.05 60.04"/>
<path d="M 366.48 74.78 365.09 73.17 363.49 71.2 361.87 68.62"/>
<path d="M 376.84 65.2 367.21 65.58"/>
<path d="M 376.84 65.2 372.58 65.7 370.31 66.37 369.28 66.84 368.06 67.5 364.87 70 364.17 70.95 363.71 71.7 363.43 72.24 363.12 73.07 362.8 75.19 362.77 83.37"/>
<path d="M 357.45 66.21 361.21 74.28"/>
<path d="M 361.21 74.28 361.43 78.46"/>
<path d="M 354.05 60.04 342.84 55.72"/>
<path d="M 362.38 77.34 362.77 83.37"/>
<path d="M 525.17 270.51 517.36 285.49 515.87 292.84"/>
<path d="M 531.02 252.99 525.17 270.51"/>
<path d="M 532.14 252.26 534.49 241.1"/>
<path d="M 526.28 270.34 532.14 252.26"/>
<path d="M 515.87 292.84 515.82 294.65"/>
<path d="M 515.82 294.65 516.15 299.88"/>
<path d="M 513.43 292.61 513.57 295.05"/>
<path d="M 517.3 299.08 516.93 294.68"/>
<path d="M 516.15 299.88 516.44 301.61 517.4 305.19"/>
<path d="M 517.4 305.19 520.54 311.95"/>
<path d="M 516.93 294.68 516.98 292.89"/>
<path d="M 516.98 292.89 518.56 285.22 526.28 270.34"/>
<path d="M 522.52 312.18 522.15 311.65 521.56 310.74 521.08 309.87"/>
<path d="M 521.08 309.87 518.84 304.89"/>
<path d="M 520.54 311.95 521.35 313.22 521.67 313.73 522.02 314.24"/>
<path d="M 522.02 314.24 529.46 322.45"/>
<path d="M 518.84 304.89 517.59 300.48 517.3 299.08"/>
<path d="M 630.43 89.06 627.98 88.99"/>
<path d="M 627.98 88.99 617.54 88.71 588.61 90.1 578.54 90.88"/>
<path d="M 630.58 89.72 643.46 90.12 649.44 89.37"/>
<path d="M 627.98 89.65 630.58 89.72"/>
<path d="M 647.58 88.83 643.41 89.24 630.43 89.06"/>
<path d="M 649.44 89.37 652.81 88.59"/>
<path d="M 652.81 88.59 659.6 88.06"/>
<path d="M 650.96 88.1 647.58 88.83"/>
<path d="M 661.62 88.33 676.89 94.41 691.18 98.01"/>
<path d="M 661.41 87.4 659.4 87.16"/>
<path d="M 659.4 87.16 650.96 88.1"/>
<path d="M 320.82 127.86 320.15 127.87"/>
<path d="M 324.46 140.95 326.97 144.23 329.34 147.97 330.24 160.09 335.8 167.51 345.4 169.87 347.95 171.15 348.6 171.4 350.13 171.86 350.97 172.04 353.21 172.56 365.23 177.18 375.96 188.02 397.62 198.15 402.73 202.49 407.67 210"/>
<path d="M 393.37 63.74 399.55 59.66"/>
<path d="M 363.19 86.27 363.41 82.95"/>
<path d="M 383.65 65.56 393.37 63.74"/>
<path d="M 371.1 66.77 383.65 65.56"/>
<path d="M 343.99 56.44 352.75 60.4 357.45 66.21 360.77 70.32 361.9 73.71 362.38 77.34"/>
<path d="M 356.5 62.58 354.05 60.04"/>
<path d="M 363.54 92.56 363.19 86.27"/>
<path d="M 363.41 82.95 363.68 74.05"/>
<path d="M 362.56 86.69 362.88 93.1"/>
<path d="M 363.68 94.85 364.21 85.6"/>
<path d="M 370.55 79.24 368.2 76.66 366.48 74.78"/>
<path d="M 368.2 76.66 367.42 71.49 374.74 66.8"/>
<path d="M 368.45 78.01 368.06 80.85"/>
<path d="M 362.77 83.37 362.56 86.69"/>
<path d="M 363.31 116.03 362.93 116.05"/>
<path d="M 328.71 127.5 328.15 127.5 326.09 127.55 320.82 127.86"/>
<path d="M 223.71 216.36 217.78 218.33"/>
<path d="M 188.62 65.44 191.11 67.22 208.59 79.74"/>
<path d="M 472.64 60.45 478.8 61.43"/>
<path d="M 472.94 60.04 465.89 56.15"/>
<path d="M 537.1 51.31 528.12 47.71 518.82 46.65"/>
<path d="M 493.03 58.94 478.77 60.85"/>
<path d="M 497.89 59.48 515.51 60.43"/>
<path d="M 493.05 59.54 493.03 58.94"/>
<path d="M 420.55 119.63 409.68 119.58 388.29 116.94"/>
<path d="M 549.48 74.2 549.03 73.79"/>
<path d="M 548.34 70.9 553.1 60.25 553.61 59.11"/>
<path d="M 547.09 72.62 547.51 73.04"/>
<path d="M 547.09 72.62 546.52 74.05"/>
<path d="M 602.59 180.76 601.53 184.59"/>
<path d="M 587.73 60.68 584.08 67.1 583.87 67.43 583.27 68.2 580 71.72"/>
<path d="M 567.39 85.52 560.81 81.79"/>
<path d="M 567.09 85.71 573.04 89.33 574.78 90.38 576.65 91.65 577.48 92.23 578.6 93.15 579.66 94.2 580.64 95.21"/>
<path d="M 530.23 100.2 535.57 95.16 547.95 93.94"/>
<path d="M 567.39 85.52 567.09 85.71"/>
<path d="M 593.89 127.46 595.18 129.98 598.13 141.49"/>
<path d="M 556.91 172.76 547.67 163.52"/>
<path d="M 573.01 161.01 565.67 169.1"/>
<path d="M 595.07 128.15 590.77 118.53"/>
<path d="M 534.91 195.32 538.78 192.59"/>
<path d="M 538.74 192.21 538.9 184.24 534.65 164.53 517.41 147.41"/>
<path d="M 590.17 118.67 593.89 127.46"/>
<path d="M 593.89 127.46 588.13 139.29"/>
<path d="M 545.28 70.98 547.09 72.62"/>
<path d="M 547.7 72.55 548.34 70.9"/>
<path d="M 546.52 74.05 542.73 83.88"/>
<path d="M 527.78 90.68 523.57 90.06"/>
<path d="M 524.95 96.76 543.32 92.6"/>
<path d="M 518.96 92.13 515.91 95.14 514.94 96.47 514.81 96.68 514.21 97.64 512.43 102.09"/>
<path d="M 523.57 90.06 522.06 90.36 521.92 90.42 521.33 90.68 520.77 90.96 518.96 92.13"/>
<path d="M 502.52 82.17 515.34 84.61"/>
<path d="M 524.33 86.27 521.04 80.69 520.09 80.11"/>
<path d="M 523.14 87.85 518.96 92.13"/>
<path d="M 542.73 83.88 541.53 90.24"/>
<path d="M 542.55 88.95 546.89 74.63"/>
<path d="M 509.59 112.03 507.63 116.66"/>
<path d="M 510.57 112.86 511.07 111.15"/>
<path d="M 509.78 120.42 510.09 117.72"/>
<path d="M 516.68 132.23 523.32 133.95"/>
<path d="M 509.85 134.24 512.5 133.17 513.49 132.78 513.67 132.71 516.68 132.23"/>
<path d="M 521.87 137.22 517.41 147.41"/>
<path d="M 516.94 131.69 513.42 132.3"/>
<path d="M 423.36 180.11 422.86 180.06"/>
<path d="M 422.26 162.23 421.54 146.71"/>
<path d="M 423.36 180.11 422.75 172.56"/>
<path d="M 422.86 180.06 423.32 185.55"/>
<path d="M 525.09 95.91 523.27 96.37"/>
<path d="M 497.66 58.95 496.98 51.96"/>
<path d="M 281.03 189.61 325.76 162.89"/>
<path d="M 598.2 141.85 599.14 141.86 606.64 139.32"/>
<path d="M 598.13 141.49 588.76 139.43 588.13 139.29"/>
<path d="M 515.74 84.11 507.86 81.87 498.06 81.57"/>
<path d="M 518.56 79.9 519.06 80.1"/>
<path d="M 511.78 89 507.58 94.06"/>
<path d="M 521.38 90.92 522.42 89.91 523.17 89.01 523.53 88.43 523.86 87.79 524.03 87.43 524.33 86.27"/>
<path d="M 519.2 79.67 518.71 79.44"/>
<path d="M 516.66 68.54 516.05 60.48"/>
<path d="M 503.72 126.46 498.29 130.07 484.13 134.76 480.72 135.52 467.17 138.47"/>
<path d="M 442.11 144.71 442.53 145.02 444.48 145.53 445.62 145.5 457.97 141.32"/>
<path d="M 345.71 170.65 342.09 171.4"/>
<path d="M 277.3 191.14 272.15 193.36"/>
<path d="M 312.21 183.5 313.39 182.74"/>
<path d="M 311.88 183.1 300.34 192.69"/>
<path d="M 271.71 193.9 272.15 193.36 276.09 187.7"/>
<path d="M 271.68 193.35 271.18 193.93 270.24 194.73 268.81 195.83 264.83 198.73 259.28 202.54 258.65 202.91 256.33 204.38"/>
<path d="M 276.7 191.81 278.35 191.68 286.31 192.44"/>
<path d="M 286.31 192.44 292.68 193.05 299.48 193.61 300.29 193.67 301.74 193.78 306.82 193.9 308.9 193.81 311.73 193.58 312.33 193.4"/>
<path d="M 516.11 60.04 513.41 50.84"/>
<path d="M 515.51 60.43 516.15 68.69"/>
<path d="M 552.35 57.58 537.1 51.31"/>
<path d="M 552.22 58.57 553.04 58.97"/>
<path d="M 516.11 60.04 515.59 59.97"/>
<path d="M 310.03 389 309.73 391.71"/>
<path d="M 307.18 411.37 307.91 408.66"/>
<path d="M 310.33 391.62 310.67 388.97"/>
<path d="M 309.73 391.71 309.21 396.56 308.97 398.88 307.6 407.7"/>
<path d="M 310.16 451.2 309.38 450.98"/>
<path d="M 129.01 293.6 129.3 295.34"/>
<path d="M 129.29 285.96 131.45 284.74"/>
<path d="M 120.61 290.08 129.29 285.96"/>
<path d="M 118.11 291.03 120.61 290.08"/>
<path d="M 141.18 275.09 134.85 279.66 131.53 283.47 130.98 284.41 130.4 285.56 129.48 288.11 129.01 293.6"/>
<path d="M 129.3 295.34 134.28 304.56"/>
<path d="M 242.85 345.06 241.33 343.27"/>
<path d="M 238.5 343.28 240.44 345.29"/>
<path d="M 241.33 343.27 226.05 333.08 218 330.48 164.66 320.34 147.53 313.37 138.6 305.53"/>
<path d="M 30.7 278.01 50.95 284.86 71.61 290.24"/>
<path d="M 265.27 223.41 267.77 222.26 269.82 221.32 270.39 221.09"/>
<path d="M 715.13 507.41 709.37 498.45 693.26 479.72 687.03 473.05"/>
<path d="M 502.34 360.43 503.71 360.74 506.94 361.55"/>
<path d="M 554.49 390.03 554.06 389.52 553.5 388.92 552.81 388.18 552.49 387.86"/>
<path d="M 575.38 394.29 577.23 398.39 577.97 399.84 578.62 400.93"/>
<path d="M 578.62 400.93 583.39 405.58"/>
<path d="M 580.77 388.11 580.38 387.51 580.08 387.21 579.69 386.97 579.39 386.81 579.04 386.68 578.57 386.56 578.05 386.51 577.66 386.52 577.28 386.55"/>
<path d="M 577.28 386.55 575.93 393.59 575.7 394.42 575.4 395.12 573.94 397.95 571.41 400.87"/>
<path d="M 576.74 376.46 575.42 374.11"/>
<path d="M 574.24 374.61 576.04 377.58"/>
<path d="M 581.4 398.85 581.04 397.96 580.8 397.32 580.51 396.44"/>
<path d="M 577.99 396.71 578.27 397.94 578.79 399.5 579.24 400.52"/>
<path d="M 576.04 377.58 578.26 384.37"/>
<path d="M 580.51 396.44 580.41 396.13 579.84 392.14"/>
<path d="M 450.84 390.32 404.23 386.94 379.97 386.37 350.63 387.63"/>
<path d="M 507.94 394.23 536.96 393.25"/>
<path d="M 507.94 393.94 505.94 393.95 502.08 393.9 497.13 393.7 480.09 392.48"/>
<path d="M 240.44 345.29 248.58 358.08 255.8 370.18"/>
<path d="M 480.06 392.77 497.05 394 502.08 394.2 505.9 394.25 507.94 394.23"/>
<path d="M 609.45 306.07 608.99 304.11"/>
<path d="M 608.59 304.67 608.99 306.33"/>
<path d="M 607.44 299.64 608.59 304.67"/>
<path d="M 608.99 304.11 607.83 299.26"/>
<path d="M 609.13 306.92 610.3 311.5"/>
<path d="M 612.81 319.1 612.38 317.48 610.72 310.92 610.63 310.59"/>
<path d="M 696.44 302.08 695 299.05"/>
<path d="M 695 299.05 688.12 286.94 683.23 282.41"/>
<path d="M 695.32 301.96 696.66 301.35 700.47 299.47 713.86 293.08"/>
<path d="M 644.07 324.71 641.98 325.73"/>
<path d="M 641.98 325.73 628.9 332.98 623.77 336.52 623.1 337.03 622.22 337.69 621.41 338.3 604.63 351.66"/>
<path d="M 621.58 335.78 624.22 339.85"/>
<path d="M 614.6 325.39 621.58 335.78"/>
<path d="M 644.33 325.5 685.17 306.02 694.57 301.56 696.66 300.57 702.5 297.78 735.1 282.53"/>
<path d="M 642.18 326.52 644.33 325.5"/>
<path d="M 691.51 97.18 676.84 93.46 661.41 87.4"/>
<path d="M 691.18 98.01 692.73 98.4"/>
<path d="M 598 194.85 599.27 193.97 599.68 193.61 600.2 193.16 601.14 192.1 601.46 191.62 601.83 191.02 602.15 190.38"/>
<path d="M 602.15 190.38 603.02 185.36"/>
<path d="M 603.02 185.36 603.16 182.83"/>
<path d="M 597.34 194.8 588.2 200.65"/>
<path d="M 601.87 190.07 601.67 190.56 601.3 191.21 600.85 191.87 599.94 192.92 599.28 193.54 598.71 193.98 597.34 194.8"/>
<path d="M 602.49 185.92 601.87 190.07"/>
<path d="M 602.68 183.31 602.49 185.92"/>
<path d="M 600.98 187.33 601.32 190.5 602.46 192.07 602.94 192.75 603.42 193.26"/>
<path d="M 601.53 184.59 600.98 187.33"/>
<path d="M 537.78 92.76 540.29 92.03 541.12 91.43 541.71 90.79 542.1 90.1 542.55 88.95"/>
<path d="M 550.68 91.67 547.9 91.3"/>
<path d="M 547.9 91.3 544.18 90.72 542.69 90.6 540.08 90.63"/>
<path d="M 557.12 91.27 567.09 85.71"/>
<path d="M 512.89 130.96 511.8 127.06 510.42 122.67"/>
<path d="M 510.49 122.03 511.3 118.8 511.02 118.19 510.56 117.73 510.09 117.43 509.24 117.13 508.73 117.05 508.15 117.06 507.55 117.2 507.04 117.44 506.76 117.65 505.9 118.86 505.98 119.89 506.43 120.87 506.55 121.28 506.34 122.63 505.44 124.4"/>
<path d="M 513.79 328.09 515.95 327.57"/>
<path d="M 471.71 334.88 493.83 331.29"/>
<path d="M 493.73 330.92 471.64 334.6"/>
<path d="M 471.64 334.6 443.56 338.83 413.83 340.25 382.95 340.91"/>
<path d="M 120.94 162.82 98.89 160.26 86.7 162.51"/>
<path d="M 138.6 305.53 137.54 303.97"/>
<path d="M 137.54 303.97 133.53 289.48 142.77 276.41"/>
<path d="M 255.8 370.18 257.14 372.33"/>
<path d="M 257.14 372.33 266.29 381.89 279.21 388.51 290.56 391.02 309.36 390.81"/>
<path d="M 303.24 362.01 304.79 364.45"/>
<path d="M 304.79 364.45 311.53 374.49"/>
<path d="M 258.2 369.87 250.7 357.18 242.85 345.06"/>
<path d="M 259.63 372.08 258.2 369.87"/>
<path d="M 517.1 331.89 513.15 333.03"/>
<path d="M 515.95 327.57 518.27 324.48"/>
<path d="M 531.09 321.67 522.52 312.18"/>
<path d="M 513.38 327.77 516.58 328.62"/>
<path d="M 516.58 328.62 517.75 328.96 521.9 330.01 531.4 332.6 535.6 333.74 539.55 334.51 540.78 334.66 542.68 334.83 545.94 334.92 547.57 334.87 551 334.57 554.16 334.04 564.5 330.29 577.13 323.25 578.51 322.48"/>
<path d="M 516.73 328.39 513.61 327.56"/>
<path d="M 513.61 327.56 513.2 327.45 508.05 326.85 502.79 327.89"/>
<path d="M 533.21 323.79 531.09 321.67"/>
<path d="M 540.67 333.74 542.39 335.46"/>
<path d="M 542.39 335.46 553.47 346.58 557.51 350.8 560.82 354.66 561.24 355.16 564.98 360.08 574.24 374.61"/>
<path d="M 529.46 322.45 531.5 324.49"/>
<path d="M 531.5 324.49 540.67 333.74"/>
<path d="M 545.06 335.83 542.86 333.59"/>
<path d="M 542.86 333.59 535.73 326.36 533.21 323.79"/>
<path d="M 558.57 133.48 566.12 133.74"/>
<path d="M 558.51 132.95 546.04 134.57"/>
<path d="M 546.04 134.57 541.11 135.91"/>
<path d="M 546.41 135.05 558.57 133.48"/>
<path d="M 565.67 169.1 563.76 174.03"/>
<path d="M 641.1 148.3 647.52 150.97"/>
<path d="M 560.01 350.64 568.08 336.06 575.21 328.86"/>
<path d="M 558.78 352.91 560.01 350.64"/>
<path d="M 538.24 93.17 541.26 92.54"/>
<path d="M 134.28 304.56 135.58 306.06"/>
<path d="M 309.36 390.81 327.63 389.71 349.09 388.61"/>
<path d="M 310.67 388.97 311.8 378.71"/>
<path d="M 311.8 378.71 311.82 374.48"/>
<path d="M 327.44 388.85 310.92 389.73 309.68 389.79 292.46 389.95 282.65 387.89 271.35 382.89 259.63 372.08"/>
<path d="M 557.06 393.27 554.49 390.03"/>
<path d="M 577.11 377.01 576.74 376.46"/>
<path d="M 575.03 373.51 570.1 365.42"/>
<path d="M 578.47 372.53 575.87 374.61 575.53 374.86 574.72 375.49"/>
<path d="M 579.46 383.12 578.73 380.03"/>
<path d="M 673.16 519.56 670.5 512.98"/>
<path d="M 493.03 58.94 492.72 54.33"/>
<path d="M 320.15 127.87 310.36 127.97"/>
<path d="M 502.79 327.89 493.73 330.92"/>
<path d="M 504.42 327.66 513.38 327.77"/>
<path d="M 352.23 126.97 341.98 127.19"/>
<path d="M 672.63 480.54 672.94 478.94 672.36 476.1"/>
<path d="M 315.51 452.56 316.98 453.26 318.65 454.05 323.45 456.28 329.59 458.31 346.11 454.61 356.92 454.56 384.83 461.62 400.62 468.64 410.61 475.71 419.49 484.08 428.54 489.92"/>
<path d="M 676.48 536.77 669.96 539.86"/>
<path d="M 457.1 496.98 456.7 496.84 455.68 496.53 454.16 496.14 444.85 494.24"/>
<path d="M 444.7 494.6 449.18 495.63 456.21 497.32"/>
<path d="M 315.51 452.56 311.95 451.66"/>
<path d="M 444.85 494.24 434.47 491.8"/>
<path d="M 71.61 290.24 71.66 290.78 72.34 292.2 72.62 294.38 71.97 295.35 71.23 295.83 71.15 295.91 71.04 295.95 70.46 296.27 69.18 296.81 67.98 297.18"/>
<path d="M 512.49 136.47 512.37 134.17 511.85 131.75"/>
<path d="M 507.46 126.26 510.71 132.2"/>
<path d="M 102.85 295.68 118.11 291.03"/>
<path d="M 142.77 276.41 148.71 272.47 181.46 256.1 194.1 249.83 198.49 247.65 201.47 246.23 209.34 242.31 228.74 233.18 252.63 225.37 267.83 219.96"/>
<path d="M 349.16 387.71 327.44 388.85"/>
<path d="M 350.56 388.53 392.83 387.17 450.81 390.61"/>
<path d="M 135.58 306.06 141.04 311.32 153.55 318.42 162.19 320.91 211.42 330.67 224.78 334.38 238.5 343.28"/>
<path d="M 350.63 387.63 349.16 387.71"/>
<path d="M 349.09 388.61 350.56 388.53"/>
<path d="M 679.29 548.29 676.48 536.77"/>
<path d="M 618.8 341.6 624.36 337.13 627.21 335.01"/>
<path d="M 536.96 393.25 545.52 391.89 549.34 390.86 552.36 389.87 555.18 388.81 571.43 379.72 578.07 374.44 578.4 374.21 583.28 370.3 596.47 359.33"/>
<path d="M 588.31 407.25 581.4 398.85"/>
<path d="M 612.04 319.3 614.6 325.39"/>
<path d="M 578.26 384.37 578.04 385.94 577.9 387.46 577.79 388.19 577.34 390.49 576.32 394.47 576 395.48 575.81 396"/>
<path d="M 574.72 375.49 564.43 382.99 554.52 387.92 553.78 388.24 551.02 389.26 544.44 391.17"/>
<path d="M 380.33 338.95 380.61 340.96 380.67 341.33"/>
<path d="M 257.98 191.89 257.89 192.25"/>
<path d="M 388.49 266.27 370.74 264.09"/>
<path d="M 422.1 259.91 426.84 258.16"/>
<path d="M 532.78 92.15 530.37 91.77 527.78 90.68"/>
<path d="M 516.68 132.23 516.94 131.69"/>
<path d="M 276.7 191.81 278.13 191.05"/>
<path d="M 556.69 50.96 557.12 51.13 567.21 54.44"/>
<path d="M 537.11 92.85 537.78 92.76"/>
<path d="M 629.48 90.7 629.58 89.92 629.5 87.61 630.07 83.59 632.36 81.68 640.17 78.1 643.37 74.78"/>
<path d="M 422.86 180.06 413.54 180.33 376.67 187.87 375.96 188.02 363.27 190.47 312.33 193.4"/>
<path d="M 313.53 590.92 324.06 578.09 372.46 551.57 397.11 536.53"/>
<path d="M 560.2 43.41 556.69 50.96 554.17 56.46 553.64 57.62"/>
<path d="M 546.89 74.63 547.51 73.04 547.7 72.55"/>
<path d="M 41.36 292.29 58.79 288.91 68.98 290.3 71.66 290.78"/>
<path d="M 89.73 300.34 95.96 300.76"/>
<path d="M 745.3 214.21 738.58 221.41 692.31 255.42 690.94 256.43"/>
<path d="M 185.16 228 184.93 228.07"/>
<path d="M 217.78 218.33 196.16 224.73"/>
<path d="M 189.04 226.84 185.16 228"/>
<path d="M 84.31 287.81 82.64 288.52"/>
<path d="M 160.97 238.02 157.96 239.82"/>
<path d="M 337.13 120.61 357.57 116.76"/>
<path d="M 391.92 63.62 386.83 64.77"/>
<path d="M 492.72 54.33 492.74 50.14"/>
<path d="M 321.66 336.97 336.59 317.62"/>
<path d="M 317.59 342.33 317.31 342.7"/>
<path d="M 578.73 380.03 577.11 377.01"/>
<path d="M 546.98 228.53 538.98 193.72 538.78 192.59"/>
<path d="M 547.26 245.68 547.41 243.2"/>
<path d="M 546.79 248.29 547.26 245.68"/>
<path d="M 529.96 290.69 530.37 289.61"/>
<path d="M 530.37 289.61 537.51 271.9"/>
<path d="M 547.9 231.79 546.98 228.53"/>
<path d="M 547.51 73.04 548.41 73.89 550.68 75.5"/>
<path d="M 549.03 73.79 547.7 72.55"/>
<path d="M 560.91 82.21 567.09 85.71"/>
<path d="M 573.61 89.22 567.39 85.52"/>
<path d="M 518.27 324.48 517.99 320.8"/>
<path d="M 575.97 157.35 586.53 142.27"/>
<path d="M 575.1 158.68 575.97 157.35"/>
<path d="M 593.46 132.82 595.18 129.98 595.07 128.15"/>
<path d="M 282.46 212.65 285.21 210.88"/>
<path d="M 273.36 217.04 269.61 218.75"/>
<path d="M 432.41 146.11 434.68 145.75 436.48 145.32"/>
<path d="M 433.89 145.37 431.75 145.68 429.94 145.76"/>
<path d="M 554.97 92.83 555.85 92.87"/>
<path d="M 545.92 92.39 550.54 92.58"/>
<path d="M 578.26 384.37 578.44 385.98 578.27 388.22 577.82 393.79 577.99 396.71"/>
<path d="M 579.84 392.14 579.83 388.19 579.63 385.47 579.52 383.62 579.46 383.12"/>
<path d="M 604.63 351.66 602.69 353.21"/>
<path d="M 614.17 345.24 618.8 341.6"/>
<path d="M 602.69 353.21 595.71 358.82"/>
<path d="M 544.44 391.17 533.94 392.72 507.94 393.94"/>
<path d="M 603.39 354.35 612.57 347.52 621.26 340.95"/>
<path d="M 603.39 354.35 618.8 341.6"/>
<path d="M 570.1 365.42 567.2 360.96 562.82 354.84 560.8 352.38 559.4 350.68 557.47 348.47 554.58 345.42 545.06 335.83"/>
<path d="M 530.32 183.61 534.69 167.88"/>
<path d="M 529.29 183.44 528.47 186.51 527.81 196.05 528.18 199.15 528.48 200.69 528.92 202.57 531.56 209.34"/>
<path d="M 627.21 335.01 642.18 326.52"/>
<path d="M 64.49 294.54 55.84 289.98"/>
<path d="M 64.49 294.54 68.98 290.3"/>
<path d="M 551.17 91.73 550.68 91.67"/>
<path d="M 567.73 92.43 575.67 91.74"/>
<path d="M 622.22 335.3 616.77 327.65 614.26 323.22 613.36 320.96 612.81 319.1"/>
<path d="M 633.38 369.72 633.09 367.94 631.83 359.15 631.31 356.11"/>
<path d="M 624.77 339.35 622.22 335.3"/>
<path d="M 629.23 350.78 630.06 353.83 630.6 356.15"/>
<path d="M 641.62 324.8 637.51 327.04 625.1 334.23 621.1 337.23 609.94 346.21"/>
<path d="M 637.51 327.04 630.12 329.3 620.54 328.55 617.47 327.31 614.26 323.22"/>
<path d="M 642.43 327.49 644.58 326.41"/>
<path d="M 643.69 323.81 641.62 324.8"/>
<path d="M 662.66 315.18 661.83 315.52 659 316.39 643.69 323.81"/>
<path d="M 669.62 312.63 662.66 315.18"/>
<path d="M 644.58 326.41 651.14 322.94"/>
<path d="M 644.58 326.41 659.2 319.52"/>
<path d="M 625.72 337.64 637.91 329.7 642.43 327.49"/>
<path d="M 659.2 319.52 661.75 318.16 663.23 317.24 664.01 316.78 666.62 315.41"/>
<path d="M 666.62 315.41 685.17 306.02"/>
<path d="M 673.59 309.83 663.41 314.36"/>
<path d="M 663.41 314.36 662.21 314.91 661.16 315.58 660.15 316.23 658.45 317.22"/>
<path d="M 658.45 317.22 644.07 324.71"/>
<path d="M 582.07 95.84 582.34 95.28 584.64 95.98"/>
<path d="M 582.34 95.28 582.88 94.66"/>
<path d="M 289.39 526.24 278.33 563.27 267.83 602.43"/>
<path d="M 309.38 450.98 308.62 450.74"/>
<path d="M 669.6 468.4 669.24 467.42 669 466.72 668.68 465.83 668.62 465.62 666.75 460.41"/>
<path d="M 610.3 311.5 610.46 312.21 611.95 318.93 612.04 319.3"/>
<path d="M 610.63 310.59 609.45 306.07"/>
<path d="M 630.6 356.15 631.21 360.53"/>
<path d="M 666.75 460.41 664.27 453.54"/>
<path d="M 668.21 466.3 668.65 467.46 668.9 468.1 670.77 473.19"/>
<path d="M 602.59 180.76 602.68 183.31"/>
<path d="M 423.84 197.09 423.78 196.03"/>
<path d="M 376.43 116.63 371.88 115.67"/>
<path d="M 499.19 92.44 507.36 94.45 508.05 94.62"/>
<path d="M 499.2 92.04 494.01 90.67 486.97 84.86"/>
<path d="M 395.64 536.51 392.1 538.77"/>
<path d="M 517.88 85.35 523.15 87.53 523.72 87.83 523.84 87.89 524.32 88.15 527.56 89.99 528.53 90.66 530.21 92.16 530.89 92.75 531.36 93.03 532.05 93.41 532.91 93.82 533.77 93.98 538.24 93.17"/>
<path d="M 388.59 266.72 392.4 264.86 395.72 263.8"/>
<path d="M 395.72 263.8 422.1 259.91"/>
<path d="M 392.15 264.52 392.4 264.86"/>
<path d="M 307.29 466.1 289.39 526.24"/>
<path d="M 694.61 467.64 695.69 467.03 696.41 466.61 708.11 457.3 726.39 445.42 744.72 437.18 770.18 431.16 778.19 425.24 781.15 420.83 791.83 396.71 798.68 377.43 797.91 358.1 799 352.66"/>
<path d="M 664.36 464.74 667.53 464.6"/>
<path d="M 650.18 460.68 655.06 466.36 653.93 470.58"/>
<path d="M 664.9 457.13 655.32 462.05"/>
<path d="M 679.47 468.77 666.75 460.41"/>
<path d="M 261.22 343.5 261.09 342.59"/>
<path d="M 690.52 302 694.53 299.27"/>
<path d="M 700.47 299.47 696.44 302.08"/>
<path d="M 246.52 247.22 246.48 247.75 244.07 289.24"/>
<path d="M 462.72 139.76 462.76 140.7 462.77 140.94 462.8 142.09 463.01 148.53"/>
<path d="M 508.6 95.64 509.96 95.69 512.55 96.48 513.31 96.68 517.28 97.59 518.6 97.92 520.6 98.66 526.71 100.36 530.23 100.2"/>
<path d="M 185.14 243.13 181.48 240.03"/>
<path d="M 295.67 198.82 285.96 209.65"/>
<path d="M 296.48 197.64 295.67 198.82"/>
<path d="M 296.32 198.86 297.14 197.68"/>
<path d="M 297.14 197.68 299.67 194.33"/>
<path d="M 313.39 182.74 326.71 175.76"/>
<path d="M 313.05 182.33 311.88 183.1"/>
<path d="M 509.63 117.48 509.77 116.68"/>
<path d="M 509.77 116.68 510.57 112.86"/>
<path d="M 435.17 145.19 433.89 145.37"/>
<path d="M 429.94 145.76 422.34 145.04"/>
<path d="M 506.38 126.44 506.72 127.11"/>
<path d="M 505.58 124.86 505.81 125.32"/>
<path d="M 509.87 122.55 509.78 120.42"/>
<path d="M 506.02 125.73 506.38 126.44"/>
<path d="M 509.9 123.17 509.87 122.55"/>
<path d="M 505.81 125.32 506.02 125.73"/>
<path d="M 693.06 97.57 691.51 97.18"/>
<path d="M 692.73 98.4 713.42 101.77"/>
<path d="M 710.31 100.79 693.06 97.57"/>
<path d="M 541.26 92.54 545.76 91.95 550.59 92.28"/>
<path d="M 524.73 97.38 543.32 92.6"/>
<path d="M 297.59 197.72 306.82 193.9"/>
<path d="M 208.33 247.75 207.76 247.01 209.34 242.31"/>
<path d="M 464.5 140.79 466.89 139.86 467.53 139.28 467.91 138.82 468.12 138.45 468.2 137.95 468.14 136.36"/>
<path d="M 443.07 143.12 444.08 142.7 446.82 143.6 444.62 144.99 442.81 143.99 442.7 143.75 442.41 142.98"/>
<path d="M 472.45 136.44 473.36 135.35"/>
<path d="M 505.86 124.48 506.08 125.03"/>
<path d="M 506.55 126.2 506.85 127"/>
<path d="M 506.85 127 507.48 128.7"/>
<path d="M 505.73 123.31 506.1 124.12"/>
<path d="M 506.33 119.92 506.15 120.84"/>
<path d="M 507.63 116.66 507.16 117.74"/>
<path d="M 513.67 132.71 513.42 132.3"/>
<path d="M 510.42 122.67 510.49 122.03"/>
<path d="M 507.11 125.41 507.46 126.26"/>
<path d="M 506.26 125.48 506.55 126.2"/>
<path d="M 506.6 124.31 506.81 124.79"/>
<path d="M 506.64 125.02 507.03 125.62"/>
<path d="M 511.03 138.62 511.56 142.28"/>
<path d="M 507.03 125.62 507.46 126.26"/>
<path d="M 509.64 123.35 509.61 122.73"/>
<path d="M 532.88 212.96 535.04 217.28"/>
<path d="M 506.1 124.12 506.39 124.59"/>
<path d="M 505.55 123.65 505.86 124.48"/>
<path d="M 506.08 125.03 506.26 125.48"/>
<path d="M 550.59 92.28 554.97 92.83"/>
<path d="M 515.79 300.1 516.44 301.61"/>
<path d="M 506.39 124.59 506.64 125.02"/>
<path d="M 441.25 143.86 443.07 143.12"/>
<path d="M 506.81 124.79 507.11 125.41"/>
<path d="M 510.72 136.9 511.03 138.62"/>
<path d="M 449.06 142.36 449.38 141.18"/>
<path d="M 509.61 122.73 509.78 120.42"/>
<path d="M 535.04 217.28 536.28 220.35"/>
<path d="M 505.22 121.84 505.55 123.65"/>
<path d="M 506.15 120.84 506.15 122.61"/>
<path d="M 296.58 198.87 297.04 198.36 297.59 197.72"/>
<path d="M 197.07 249.49 194.1 249.83"/>
<path d="M 434.67 145.15 433.89 145.37"/>
<path d="M 507.16 117.74 506.33 119.92"/>
<path d="M 462.72 139.76 462.5 140.26 461.63 140.69"/>
<path d="M 464.11 136.09 462.77 135.12"/>
<path d="M 464.45 140.49 463.21 139.96"/>
<path d="M 462.77 135.12 461.09 136.09"/>
<path d="M 463.31 141.84 464.5 140.79"/>
<path d="M 209.27 247.3 207.76 247.01"/>
<path d="M 443.5 138.28 442.15 137.19"/>
<path d="M 280.12 191.46 279.44 190.38"/>
<path d="M 445.62 145.5 447.37 144.66 448.1 143.09 448.53 142.24 448.9 141.65 449.38 141.18"/>
<path d="M 517.84 298.99 519.19 292.18"/>
<path d="M 286.32 210.06 294.89 200.98 296.32 198.86"/>
<path d="M 285.21 210.88 286.32 210.06"/>
<path d="M 285.96 209.65 284.78 210.52"/>
<path d="M 284.78 210.52 283.47 211.4 273.36 217.04"/>
<path d="M 523.27 96.37 520.07 96.64 518.33 96.53 517.44 96.4 517.13 96.34 515.83 96.1 514.65 95.82 513.63 95.56 511.2 94.84 509.56 94.47 508.17 94.18"/>
<path d="M 363.43 72.24 362.82 73.39 362.62 73.86 361.7 76.36 361.43 78.46"/>
<path d="M 617.01 243.43 617.94 241.89"/>
<path d="M 617.94 241.89 619.39 235.96 616.49 210.57 614.4 206.46"/>
<path d="M 631.91 292.37 633.36 291.57"/>
<path d="M 633.2 291.07 631.74 291.88"/>
<path d="M 687.99 259.17 736.81 223.29 745.75 214.4"/>
<path d="M 603.88 307.74 579.46 321.44"/>
<path d="M 462.52 129.9 462.23 124.74 462.22 124.48"/>
<path d="M 441.59 125.2 462.23 124.74"/>
<path d="M 441.59 124.9 441.06 119.2"/>
<path d="M 441.66 127.85 441.59 125.2 441.59 124.9"/>
<path d="M 441.39 130.47 441.8 138.58 441.82 139 441.92 140.86 442.11 144.71 442.22 146.95 442.32 149.37 442.62 156.43"/>
<path d="M 315.15 141.15 293.93 161.36 280.02 181.26 276.49 186.5"/>
<path d="M 635.22 369.49 633.09 367.94"/>
<path d="M 629.23 350.78 631.31 356.11"/>
<path d="M 633.83 371.95 635.27 370.11"/>
<path d="M 631.21 360.53 632.7 369.81"/>
<path d="M 631.83 359.15 630.6 356.15"/>
<path d="M 632.7 369.81 632.83 370.41"/>
<path d="M 631.31 356.11 629.45 349.36 624.77 339.35"/>
<path d="M 224.61 244.9 215.07 245.26 209.27 247.3 208.33 247.75 204.12 249.74 197.41 249.13"/>
<path d="M 392.1 538.77 368.06 553.38 334.49 571.5"/>
<path d="M 397.69 536.17 402.52 536.75"/>
<path d="M 403.16 536.6 403.52 532.55"/>
<path d="M 403.64 531.35 400.34 531.97"/>
<path d="M 409.14 527.83 403.64 531.35 395.64 536.51"/>
<path d="M 397.11 536.53 397.69 536.17 403.52 532.55 430.3 515.13"/>
<path d="M 430.3 515.13 436.99 511.12"/>
<path d="M 615.1 138.1 638.25 147.13"/>
<path d="M 612.65 137.15 606.43 138.96"/>
<path d="M 615.29 137.71 612.65 137.15"/>
<path d="M 612.43 137.53 615.1 138.1"/>
<path d="M 376.5 254.13 370.31 263.99"/>
<path d="M 410.89 207.27 407.99 209.65 407.67 210"/>
<path d="M 370.74 264.09 376.5 254.13"/>
<path d="M 387.56 236.31 376.5 254.13"/>
<path d="M 392.39 228.76 406.65 211.58"/>
<path d="M 406.65 211.58 408.02 210.19 408.32 209.88"/>
<path d="M 408.32 209.88 410.89 207.27"/>
<path d="M 410.89 207.27 423.84 197.09"/>
<path d="M 423.84 197.09 434.11 192.13"/>
<path d="M 494.01 90.67 493.48 91.01"/>
<path d="M 514.23 323.07 517.01 323.35"/>
<path d="M 489.7 80.09 497.58 64.78 497.89 59.48"/>
<path d="M 307.44 448.69 308.91 444.25"/>
<path d="M 308.62 450.74 307.44 448.69"/>
<path d="M 311.99 452.93 307.29 466.1"/>
<path d="M 664.27 453.54 662.32 448.12"/>
<path d="M 311.82 374.48 305.15 364.3"/>
<path d="M 303.66 361.9 303.29 357.01 304.98 353.66 314.01 346.75 315.93 344.44"/>
<path d="M 305.15 364.3 303.66 361.9"/>
<path d="M 314.01 346.75 322.92 342.57"/>
<path d="M 315.93 344.44 313.66 346.53 306.85 351.36 303.82 354.66 302.74 357.58 303.24 362.01"/>
<path d="M 519.67 92.41 521.38 90.92"/>
<path d="M 628.99 90.68 629.48 90.7 643.46 90.12"/>
<path d="M 311.95 451.66 311.05 451.43"/>
<path d="M 216.69 344 179.47 338.69 169.13 336.13 146.8 323.86 128.73 311.43"/>
<path d="M 216.61 344.37 227.36 344.63 231.81 344.53 236.75 344.43 243.86 344.27 249.2 344.15 261.17 343.89 307.49 342.91"/>
<path d="M 38 76.23 50.4 72.25 62.64 65.65 70.3 57.99 94.5 45.09 104.13 27.39"/>
<path d="M 23.29 177.48 67.41 167.09"/>
<path d="M 129.39 166.63 120.94 162.82"/>
<path d="M 129.16 166.85 141.6 171.13"/>
<path d="M 307.6 407.7 307.18 411.37"/>
<path d="M 307.91 408.66 309.49 398.85 309.8 395.98 310.33 391.62"/>
<path d="M 380.67 341.33 414.04 340.62 445.02 339.12 471.71 334.88"/>
<path d="M 317.31 342.7 315.93 344.44"/>
<path d="M 317.59 342.33 311.82 342.43 307.47 342.52"/>
<path d="M 320.67 338.25 311.82 342.43"/>
<path d="M 321.66 336.97 320.67 338.25"/>
<path d="M 320.67 338.25 317.59 342.33"/>
<path d="M 668.74 272.12 670.63 274.42 671.86 275.65"/>
<path d="M 683.23 282.41 683 280.25"/>
<path d="M 683 280.25 680.63 280.6"/>
<path d="M 671.51 274.33 673.45 269.47"/>
<path d="M 664.04 274.75 670.63 274.42"/>
<path d="M 694.53 299.27 695.98 302.3"/>
<path d="M 695.98 302.3 700.47 312.98"/>
<path d="M 702.94 319.64 704.54 323.62"/>
<path d="M 705.01 325.07 703.32 327.21"/>
<path d="M 705.56 326.74 705.67 327.12"/>
<path d="M 706.04 328.16 706.44 333.95"/>
<path d="M 646.36 368.39 666.41 360.86 687.53 359.36"/>
<path d="M 687.65 358.76 669.76 359.44 645.91 367.52 635.22 369.49 633.38 369.72 632.7 369.81"/>
<path d="M 798.49 352.39 797.36 358.76 798.52 374.72 791.47 396.09 780.78 420.25 775.94 426.75 767.58 431.68 744.31 436.7 721.02 447.72 708.05 456.72 696.43 466.02 688.1 470.88"/>
<path d="M 696.41 466.61 701.7 466.06"/>
<path d="M 671.28 474.5 671.85 475.96"/>
<path d="M 672.94 478.94 674 476.46"/>
<path d="M 672.36 476.1 671.81 474.54 669.6 468.4"/>
<path d="M 672.35 477.86 672.63 480.54"/>
<path d="M 693.26 479.72 689.42 473.06 695.69 467.03"/>
<path d="M 651.14 322.94 658.85 319.28 660.17 318.68 662.1 317.88 663.88 317.16 664.72 316.81 682.3 308.28"/>
<path d="M 642.18 326.52 644.37 325.68"/>
<path d="M 644.37 325.68 651.14 322.94"/>
<path d="M 461.22 136.6 462.64 137.86"/>
<path d="M 671.28 474.5 670.2 475.51"/>
<path d="M 633.21 457.83 634.56 460.76"/>
<path d="M 616.5 317.9 612.38 317.48"/>
<path d="M 613.36 320.96 616.98 318.17"/>
<path d="M 326.97 144.23 327.43 146.51"/>
<path d="M 391.18 63.4 386.83 64.77"/>
<path d="M 307.44 448.69 306.74 450.21"/>
<path d="M 456.21 497.32 457.17 497.66 458.24 498.06 465.22 500.87 480.33 507.36"/>
<path d="M 682.92 549.1 702.94 561.75"/>
<path d="M 670.5 512.98 669.62 510.93"/>
<path d="M 669.62 510.93 667.89 495.82 672.63 480.54"/>
<path d="M 692.31 255.42 690.82 255.28"/>
<path d="M 602.45 276.34 596 248.24"/>
<path d="M 588.2 200.65 583.43 187.27"/>
<path d="M 426.33 516.69 409.14 527.83"/>
<path d="M 428.82 489.58 419.91 483.87 409.09 473.92 399.25 467.33 388.99 462.51 356.04 453.96 348.52 453.71 329.69 457.89 323.72 455.91 317.14 452.97 315.51 452.56"/>
<path d="M 434.47 491.8 428.82 489.58"/>
<path d="M 434.18 492.17 444.7 494.6"/>
<path d="M 428.54 489.92 434.18 492.17"/>
<path d="M 256.33 204.38 258.67 203.49 259.38 203.08 265.1 198.95 269.09 196.05 270.79 194.79"/>
<path d="M 256.33 204.38 223.71 216.36"/>
<path d="M 89.73 300.34 68.27 297.53"/>
<path d="M 96.02 300.35 95.96 300.76"/>
<path d="M 111.61 302.02 96.02 300.35 89.73 300.34"/>
<path d="M 128.73 311.43 123.58 307.79"/>
<path d="M 128.73 311.43 146.42 324.09 165.54 335.11 178.75 338.97 216.61 344.37"/>
<path d="M 123.58 307.79 122.25 306.85"/>
<path d="M 122.25 306.85 111.61 302.02"/>
<path d="M 547.41 243.2 547.69 240.76"/>
<path d="M 547.41 243.2 546.85 245.63"/>
<path d="M 546.85 245.63 546.79 248.29"/>
<path d="M 687.5 167.67 705.74 170.51 731.34 178.29"/>
<path d="M 610.77 255.3 652.69 245.06 673.22 238.29 683.71 236.14 705.8 227.84 725.63 215.11 743.93 209.77"/>
<path d="M 743.78 209.27 725.37 214.81 705.92 227.34 683.45 235.81 672.52 238.08 651.54 244.99 610.95 254.92"/>
<path d="M 578.55 323.87 578.51 322.48"/>
<path d="M 578.51 322.48 602.32 309.22 608.44 305.79"/>
<path d="M 578.32 322.07 578.51 322.48"/>
<path d="M 578.32 322.07 555.72 333.24 550.91 334.16 545.07 334.51 543.13 334.44 542.2 334.37 540.58 334.22 535.57 333.31 531.56 332.28 516.73 328.39"/>
<path d="M 577.89 321.2 578.32 322.07"/>
<path d="M 575.78 328.13 577.24 328.15"/>
<path d="M 576.59 327.08 578.55 323.87"/>
<path d="M 480.33 507.36 482.8 508.44 490.47 511.78 503.6 521.32"/>
<path d="M 633.62 542.82 611.29 552.24"/>
<path d="M 556.28 554.34 542.71 551.17 538.18 548.42 516.14 530.95"/>
<path d="M 516.14 530.95 504.24 521.35"/>
<path d="M 465.22 500.87 466.84 502.84"/>
<path d="M 508.18 408.95 508.49 408.16"/>
<path d="M 508.49 408.16 509.06 405.82"/>
<path d="M 320.24 58.74 343.99 56.44"/>
<path d="M 319.56 58.21 306.47 52.11 295.27 40.78"/>
<path d="M 653.93 470.58 653.02 470.03"/>
<path d="M 467.41 156.39 476.29 172.3"/>
<path d="M 659.6 88.06 661.62 88.33"/>
<path d="M 468.14 136.36 472.45 136.44"/>
<path d="M 453.33 136.24 449.68 137.57"/>
<path d="M 449.68 137.57 447.95 138.18 447.17 138.22"/>
<path d="M 447.17 138.22 443.5 138.28"/>
<path d="M 443.5 138.28 442.22 138.72 441.82 139"/>
<path d="M 529.02 419.56 519.27 427.89"/>
<path d="M 549.27 410.32 529.02 419.56"/>
<path d="M 523.52 208.1 523.93 207.87 526.21 205.32 527.46 203.7"/>
<path d="M 523.93 207.87 527.07 206.25"/>
<path d="M 479.97 508.91 482.8 508.44"/>
<path d="M 553.1 60.25 554.48 59.16"/>
<path d="M 554.17 56.46 552.83 57.5"/>
<path d="M 458.95 220.62 453.25 219.95"/>
<path d="M 455.21 499.39 459.56 495.51"/>
<path d="M 511.05 436.62 471.67 479.69 469.02 482.96"/>
<path d="M 362.97 116.45 365.05 116.34"/>
<path d="M 357.57 116.76 362.97 116.45"/>
<path d="M 362.93 116.05 357.54 116.32"/>
<path d="M 357.54 116.32 337.09 120.09"/>
<path d="M 521.04 80.69 521.08 79.84"/>
<path d="M 680.94 164.99 687.5 167.67"/>
<path d="M 647.52 150.97 652.08 152.96"/>
<path d="M 238.56 94.57 260.78 102.82"/>
<path d="M 713.18 50.78 699.48 53.2"/>
<path d="M 398.46 59.03 391.92 63.62"/>
<path d="M 626.69 142.17 615.29 137.71"/>
<path d="M 509.96 95.69 508.76 94.8"/>
<path d="M 509.56 94.47 508.86 93.24"/>
<path d="M 524.7 198.28 521.39 199.02"/>
<path d="M 531.24 209.49 532.37 211.91"/>
<path d="M 531.56 209.34 532.75 211.74"/>
<path d="M 532.75 211.74 533.3 212.83"/>
<path d="M 532.37 211.91 532.88 212.96"/>
<path d="M 440.26 236.51 441.78 234.76"/>
<path d="M 439.94 236.4 432.81 245.51 427.63 256.66 422.1 259.91"/>
<path d="M 441.45 234.64 439.94 236.4"/>
<path d="M 441.78 234.76 449.79 225.51 451.59 220.9 451.41 219.98"/>
<path d="M 672.73 56.49 671.98 58.27"/>
<path d="M 493.83 331.29 504.42 327.66"/>
<path d="M 524.71 303.87 525.25 302.5"/>
<path d="M 525.25 302.5 528.15 295.29"/>
<path d="M 518.97 318.35 520.54 314.35 522.47 309.51 523.88 305.91 524.71 303.87"/>
<path d="M 518.97 318.35 513.47 323.06 502.79 327.89"/>
<path d="M 505.36 352.48 513.04 333.29"/>
<path d="M 505.05 353.2 505.36 352.48"/>
<path d="M 503.71 360.74 502.9 358.82"/>
<path d="M 509.06 405.82 508.91 404.38"/>
<path d="M 507.5 395.48 507.05 392.5 506.64 389.82 506.4 388.12 506.09 386.15 505.3 380.86 502.29 361.38 502.34 360.43 502.9 358.82 505.05 353.2"/>
<path d="M 673.78 522.22 673.16 519.56"/>
<path d="M 527.45 293.82 528.37 294.71"/>
<path d="M 571.69 403.58 576.41 402.78 578.98 403.37 584.3 406.37"/>
<path d="M 519.97 428.34 528.2 421.22 534.77 417.11 551.96 410.21 560.33 406.91 562.77 405.97"/>
<path d="M 509.76 439.34 520.15 429.84"/>
<path d="M 529.02 419.56 516.58 426.98"/>
<path d="M 62.05 299.4 68.27 297.53"/>
<path d="M 67.98 297.18 62.05 299.4"/>
<path d="M 454.44 44 465.54 56.56"/>
<path d="M 434.42 31.59 412.27 46.44 398.46 59.03"/>
<path d="M 602.37 170.6 603.41 169.91"/>
<path d="M 601.54 168 600.5 168.76"/>
<path d="M 599.53 148.67 601.54 168 601.64 169.17"/>
<path d="M 601.64 169.17 602.59 180.76"/>
<path d="M 588.2 200.65 587.05 206.51 595.49 248.17"/>
<path d="M 606.64 139.32 612.43 137.53"/>
<path d="M 572.57 134.89 565.86 133.06"/>
<path d="M 540.55 136.75 546.41 135.05"/>
<path d="M 588.58 200.92 598 194.85"/>
<path d="M 652.08 152.96 680.94 164.99"/>
<path d="M 606.43 138.96 599.05 141.49 598.13 141.49"/>
<path d="M 652.35 152.52 641.39 148"/>
<path d="M 602.28 169.43 599.14 141.86"/>
<path d="M 572.45 135.19 587.93 139.57 588.55 139.72"/>
<path d="M 599.14 141.86 599.05 141.49 595.07 128.15"/>
<path d="M 541.11 135.91 534.61 136.7 523.57 133.38"/>
<path d="M 307.47 342.52 261.22 343.5 260.75 343.52 249.18 343.78 243.67 343.9 236.5 344.06 231.85 344.16 227 344.26 216.69 344"/>
<path d="M 374.69 148.68 376.36 153.09 376.41 153.43 376.48 154.07 376.59 155.03 376.79 160"/>
<path d="M 372.51 139.52 372.75 130.24"/>
<path d="M 364.05 162.79 361.45 164.46"/>
<path d="M 361.78 164.82 364.45 163.17"/>
<path d="M 364.45 163.17 376.01 155.1 376.73 154.75 377.48 154.4 378.16 154.09 379.75 153.46 382.5 152.58 398.15 148.78"/>
<path d="M 373.12 155.48 364.05 162.79"/>
<path d="M 394.26 149.21 383.93 150.52"/>
<path d="M 361.45 164.46 348.73 169.93"/>
<path d="M 361.97 165.04 364.45 163.17"/>
<path d="M 344.14 173.55 350.03 172.82"/>
<path d="M 366.99 117.15 371.17 123.55"/>
<path d="M 369.17 119.21 367.63 117.32 367.12 116.69 366.58 116.01 366.13 115.34 365.82 114.83 365.17 113.16 364.92 111.5"/>
<path d="M 371.1 126.73 371.28 130.28"/>
<path d="M 371.54 159.02 376.01 155.1"/>
<path d="M 371.64 123.56 369.17 119.21"/>
<path d="M 366.99 117.15 365.05 116.34"/>
<path d="M 372.24 140.91 372.46 142.03 374.69 148.68"/>
<path d="M 376.79 160 371.54 159.02"/>
<path d="M 371.17 123.55 371.5 124.92 371.64 127.62 372.08 139.49 372.24 140.91"/>
<path d="M 394.26 149.21 381.74 152.31 378.76 153.34 377.3 153.96 376.5 154.33 372.03 156.97 364.05 162.79"/>
<path d="M 383.93 150.52 373.9 144.49"/>
<path d="M 372.51 139.52 372.41 138.07 372.15 129.6 372.08 127.67 372.04 126.06 371.64 123.56"/>
<path d="M 374.69 148.68 373.12 155.48"/>
<path d="M 377.05 160.04 377.03 158.34 376.82 155.08 376.71 153.95 373.9 144.49"/>
<path d="M 350.03 172.82 351.08 172.38 352.72 171.51 356.63 169.08"/>
<path d="M 367.5 162.61 377.05 160.04"/>
<path d="M 344.14 173.55 351.19 173.36"/>
<path d="M 356.63 169.08 362.39 165.43"/>
<path d="M 362.39 165.43 367.5 162.61"/>
<path d="M 372.75 130.24 372.64 127.67"/>
<path d="M 371.28 130.28 371.96 140.49 372.46 142.03"/>
<path d="M 372.64 127.67 372.61 126.7"/>
<path d="M 513.52 102.31 513.72 101.63"/>
<path d="M 513.11 103.79 513.52 102.31"/>
<path d="M 512.01 103.6 510 110.98"/>
<path d="M 512.43 102.09 512.01 103.6"/>
<path d="M 456.21 497.32 453.88 498.62"/>
<path d="M 519.27 427.89 518.12 429.14"/>
<path d="M 564.9 408.45 567.44 406.89 569.3 404.91 569.84 404.38 570.37 403.96 571.82 402.94 573.97 401.83"/>
<path d="M 454.61 498.93 436.48 510.59"/>
<path d="M 436.99 511.12 443.98 506.92 455.21 499.39"/>
<path d="M 436.48 510.59 426.33 516.69"/>
<path d="M 457.84 497.26 460.31 495.93"/>
<path d="M 462.14 499.01 460.31 495.93"/>
<path d="M 443.98 506.92 453.78 501.28"/>
<path d="M 564.09 404.75 562.59 405.29"/>
<path d="M 575.81 396 570.24 402.34 564.09 404.75"/>
<path d="M 575.81 396 571.41 400.87 563.46 404.19 562.81 404.42"/>
<path d="M 567.44 406.89 578.98 403.37"/>
<path d="M 551.96 410.21 564.26 408.49 564.9 408.45"/>
<path d="M 565.32 405.01 575.42 400.69 576.15 400.18 576.91 399.48 577.74 398.56 578.45 397.4 578.74 396.87 579.08 395.6 579.34 387.42 579.33 384.7 579.22 382.65 578.73 380.03"/>
<path d="M 469.82 483.4 506.82 442.55"/>
<path d="M 469.02 482.96 458.92 495.1"/>
<path d="M 459.56 495.51 466.72 487.4 469.82 483.4"/>
<path d="M 458.92 495.1 454.61 498.93"/>
<path d="M 449.18 495.63 453.88 498.62"/>
<path d="M 518.12 429.14 511.2 436.48 511.05 436.62"/>
<path d="M 506.82 442.55 509.76 439.34 518.84 429.62"/>
<path d="M 518.84 429.62 519.97 428.34"/>
<path d="M 516.58 426.98 516.27 427.33 511.2 436.48"/>
<path d="M 520.15 429.84 520.46 429.5"/>
<path d="M 582.2 396.24 582.21 390.44 579.46 383.12"/>
<path d="M 509.56 422.22 516.27 427.33 516.95 427.79 519.7 429.55 520.15 429.84"/>
<path d="M 509.56 422.22 506.01 414.38 508.18 408.95"/>
<path d="M 559.94 555.16 556.28 554.34"/>
<path d="M 537.77 548.69 542.67 551.63 546.04 552.65 573.69 558.4"/>
<path d="M 518.74 533.53 537.77 548.69"/>
<path d="M 480.64 506.92 462.14 499.01 457.84 497.26 457.64 497.18 457.1 496.98"/>
<path d="M 643.36 543.59 660.92 543.38 669.96 539.86"/>
<path d="M 672.06 274.96 671.51 274.33 670.53 273.15"/>
<path d="M 670.53 273.15 669.32 271.79"/>
<path d="M 671.86 275.65 673.51 276.97"/>
<path d="M 673.51 276.97 676.88 279.03"/>
<path d="M 676.88 279.03 681.23 281.65"/>
<path d="M 677.3 278.63 672.06 274.96"/>
<path d="M 680.45 280.49 677.3 278.63"/>
<path d="M 681.23 281.65 687.56 287.19 694.53 299.27"/>
<path d="M 471.67 479.69 468.83 482.88"/>
<path d="M 637.94 386.1 644.55 401.41 661.66 448.27"/>
<path d="M 704.54 323.62 705.01 325.07 705.56 326.74"/>
<path d="M 705.8 327.5 706.04 328.16 708 333.6"/>
<path d="M 571.73 91.52 568.09 90.66"/>
<path d="M 628.91 87.62 617.54 88.71"/>
<path d="M 280.02 181.26 280.34 181.41"/>
<path d="M 252.12 191.1 252.03 191.45"/>
<path d="M 497.31 59.5 497.23 64 489.28 80 486.52 84.71"/>
<path d="M 584.39 67.28 586.41 67.18 587.21 67.16"/>
<path d="M 589.17 67.12 598.76 66.73"/>
<path d="M 497.66 58.95 497.31 59.5"/>
<path d="M 499.44 58.95 497.66 58.95"/>
<path d="M 497.66 58.95 493.03 58.94"/>
<path d="M 320.82 127.86 324.71 127.95"/>
<path d="M 342.01 127.55 352.26 127.29"/>
<path d="M 665.72 59.98 664.85 59.55"/>
<path d="M 373.15 323.77 357.27 306.91"/>
<path d="M 517.99 320.8 518.97 318.35"/>
<path d="M 453.25 219.95 451.41 219.98 448.6 210.9 430.28 205.32 423.84 197.09"/>
<path d="M 462.7 177.5 476.29 172.3"/>
<path d="M 86.7 162.51 55.09 169.17"/>
<path d="M 78.57 164.68 101.51 160.61"/>
<path d="M 101.51 160.61 120.84 163.09"/>
<path d="M 182.2 228.91 172.55 231.71 160.97 238.02"/>
<path d="M 186.34 179.01 235.01 187.57 252.03 191.45 257.89 192.25 269.75 193.83 271.18 193.93"/>
<path d="M 270.39 221.09 267.97 217.92 267.43 217.21 259.38 203.08 259.28 202.54 257.89 192.25"/>
<path d="M 687.99 259.17 691.48 260.16"/>
<path d="M 46.6 302.94 62.05 299.4"/>
<path d="M 307.52 396.49 309.21 396.56 309.8 395.98"/>
<path d="M 577.7 375.39 589.06 366.2"/>
<path d="M 555.18 388.81 563 385.45"/>
<path d="M 565.32 405.01 573.97 401.83 576.63 400.93 577.98 400.39 578.81 399.98 579.55 399.53 580.14 399.12 580.78 398.51 581.5 397.63 582.2 396.24"/>
<path d="M 421.54 146.71 421.48 145.44 421.46 144.94 421.42 143.89 421.14 140.08 420.69 125.53"/>
<path d="M 423.78 196.03 423.32 185.55"/>
<path d="M 310.36 127.97 292.23 118.04"/>
<path d="M 462.22 124.48 441.59 124.9"/>
<path d="M 507.97 124.62 508.89 123.57 510.67 122.23 511.82 120.68 511.66 118.5 510.53 117.22 510.13 117.05 509.73 116.9 509.16 116.77 508.62 116.7 508.21 116.7 507.9 116.74 507.37 116.85 506.06 117.72"/>
<path d="M 462.28 139.15 456.85 139.25"/>
<path d="M 456.88 140.04 462.29 139.92"/>
<path d="M 88.55 285.87 84.31 287.81"/>
<path d="M 88.92 285.7 88.55 285.87"/>
<path d="M 513.3 51.26 515.59 59.97 515.51 60.43"/>
<path d="M 331.58 155.07 330.66 154.35"/>
<path d="M 330.72 156.01 331.58 155.07"/>
<path d="M 269.16 217.38 267.43 217.21"/>
<path d="M 256.33 204.38 258.72 204.61"/>
<path d="M 373.9 144.49 372.51 139.52"/>
<path d="M 387.12 117.46 388.31 117.45"/>
<path d="M 376.27 117.07 387.12 117.46"/>
<path d="M 388.29 116.94 386.53 116.99"/>
<path d="M 386.53 116.99 383.1 117.02"/>
<path d="M 371.88 115.67 367.63 115.8"/>
<path d="M 381.65 117.03 376.43 116.63"/>
<path d="M 383.1 117.02 381.65 117.03"/>
<path d="M 374.74 116.6 376.27 117.07"/>
<path d="M 367.9 116.19 374.74 116.6"/>
<path d="M 278.13 191.05 279.44 190.38 281.03 189.61"/>
<path d="M 277.93 190.89 277.3 191.14"/>
<path d="M 283.5 191.79 280.69 191.56 280.12 191.46 278.13 191.05 277.93 190.89"/>
<path d="M 281.03 189.61 277.93 190.89"/>
<path d="M 280.69 191.56 278.35 191.68"/>
<path d="M 272.41 193.75 276.7 191.81"/>
<path d="M 271.18 193.93 271.71 193.9"/>
<path d="M 269.75 193.83 270.24 194.73"/>
<path d="M 268.81 195.83 269.09 196.05"/>
<path d="M 265.1 198.95 264.83 198.73"/>
<path d="M 407.67 210 408.02 210.19"/>
<path d="M 407.67 210 406.65 211.58"/>
<path d="M 644.89 63.15 641.6 47.75"/>
<path d="M 701.46 313.48 696.44 302.08"/>
<path d="M 706.41 326.93 706.27 326.55"/>
<path d="M 581.13 94.93 580.26 94.05 579.3 93.06 578.28 92.2 578.06 92.04 577.29 91.51"/>
<path d="M 453.78 501.28 457.17 497.66"/>
<path d="M 458.22 494.5 454.16 496.14"/>
<path d="M 67.98 297.18 68.27 297.53"/>
<path d="M 70.38 295.75 64.49 294.54"/>
<path d="M 510 110.98 509.75 112.2"/>
<path d="M 364.92 111.5 363.68 94.85 363.54 92.56"/>
<path d="M 363.56 100.59 364.14 107.45"/>
<path d="M 362.88 93.1 363.56 100.59"/>
<path d="M 317.38 58.3 320.24 58.74"/>
<path d="M 322.84 58.21 319.56 58.21"/>
<path d="M 342.84 55.72 322.84 58.21"/>
<path d="M 560.59 399.36 560.86 398.84"/>
<path d="M 562.14 401.26 561.87 402.01"/>
<path d="M 560.91 399.96 562.14 401.26"/>
<path d="M 557.06 393.27 558.56 395.42"/>
<path d="M 565.47 410.72 564.9 408.45 564.63 407.73 563.46 404.19 562.14 401.26 560.86 398.84 559.93 397.74"/>
<path d="M 559.93 397.74 560.59 399.36 560.91 399.96 561.87 402.01 562.81 404.42"/>
<path d="M 356.87 127.04 363.73 126.9 371.1 126.73 372.61 126.7 420.69 125.53"/>
<path d="M 436.12 125.16 441.08 125.19"/>
<path d="M 291.6 252.91 298.45 257.33 311.16 260.95 322.25 261.21"/>
<path d="M 370.2 264.31 373.63 264.92"/>
<path d="M 370.31 263.99 351.38 260.8 321.36 260.84"/>
<path d="M 369.77 264.93 368.05 267.42"/>
<path d="M 367.31 268.44 366.81 269.14"/>
<path d="M 366.81 269.14 365.47 271.18"/>
<path d="M 367.75 267.84 367.31 268.44"/>
<path d="M 368.05 267.42 367.75 267.84"/>
<path d="M 373.63 264.92 378.05 265.89"/>
<path d="M 378.05 265.89 388.59 266.72"/>
<path d="M 650.2 468.31 633.21 457.83"/>
<path d="M 261 341.83 256.95 335.29 245.38 329.61 242.23 322.85 244.07 289.24"/>
<path d="M 518.71 79.44 518.56 79.9"/>
<path d="M 519.06 80.1 519.2 79.67"/>
<path d="M 682.41 262.71 680.44 264.16"/>
<path d="M 680.44 264.16 677.19 266.5"/>
<path d="M 264.37 104.1 261.22 102.97"/>
<path d="M 458.22 494.5 457.21 495.79 457.05 496.45 457.06 496.67 457.1 496.98"/>
<path d="M 460.31 495.93 466.72 487.4"/>
<path d="M 453.78 501.28 458.24 498.06"/>
<path d="M 453.88 498.62 451.3 500.65"/>
<path d="M 456.21 497.32 457.13 497.29 457.84 497.26"/>
<path d="M 457.1 496.98 457.13 497.29 457.17 497.66"/>
<path d="M 451.3 500.65 426.33 516.69"/>
<path d="M 467.01 485.04 458.22 494.5"/>
<path d="M 468.83 482.88 467.01 485.04"/>
<path d="M 478.77 60.85 472.94 60.04"/>
<path d="M 478.8 61.43 493.05 59.54"/>
<path d="M 716.09 564.94 705.8 562.27 682.92 549.1"/>
<path d="M 679.85 550.28 680.73 553.23"/>
<path d="M 191.11 67.22 191.57 62.46"/>
<path d="M 464.35 219.98 458.95 220.62"/>
<path d="M 244.07 289.24 241.64 321.88 245.29 330.28 256.77 335.79 260.43 342.62 260.75 343.52 261.17 343.89"/>
<path d="M 141.6 171.13 146.49 172 186.34 179.01"/>
<path d="M 141.67 170.79 129.39 166.63"/>
<path d="M 305.16 431.21 306.21 417.31 306.26 416.96 307.18 411.37"/>
<path d="M 305.11 432.6 305.16 431.21"/>
<path d="M 581.99 96.01 581.13 94.93"/>
<path d="M 575.78 328.13 576.59 327.08"/>
<path d="M 553.64 57.62 552.83 57.5"/>
<path d="M 553.64 57.62 553.04 58.97"/>
<path d="M 552.83 57.5 552.35 57.58"/>
<path d="M 554.2 57.78 553.64 57.62"/>
<path d="M 554.2 57.78 557.12 51.13 560.64 43.51"/>
<path d="M 553.61 59.11 554.2 57.78"/>
<path d="M 553.61 59.11 554.48 59.16"/>
<path d="M 554.65 59.16 582.59 67.32 583.87 67.43 584.39 67.28"/>
<path d="M 554.48 59.16 554.65 59.16"/>
<path d="M 553.04 58.97 553.61 59.11"/>
<path d="M 553.04 58.97 547.93 70.44 547.28 72.14 547.09 72.62"/>
<path d="M 582.24 96.35 582.07 95.84"/>
<path d="M 310.73 342.84 317.31 342.7"/>
<path d="M 261.09 342.59 261 341.83"/>
<path d="M 260.43 342.62 261.09 342.59"/>
<path d="M 261.17 343.89 261.22 343.5"/>
<path d="M 653.93 470.58 670.2 475.51"/>
<path d="M 705.67 327.12 705.8 327.5"/>
<path d="M 612.36 552.21 633.71 543.13"/>
<path d="M 611.29 552.24 602.87 555.27 583.49 558.9 573.81 558.04"/>
<path d="M 324.71 127.95 326.33 127.89 328.12 127.89 328.62 127.88"/>
<path d="M 344.8 169.05 345.4 169.87"/>
<path d="M 344.8 169.05 338.53 167.69 330.84 159.72 330.72 156.01 330.66 154.35 328.91 145.84 321.27 135.84 321.13 135.36 320.82 127.86"/>
<path d="M 601.95 276.83 598.09 280.07"/>
<path d="M 632.83 370.41 633.51 370.33 635.27 370.11 646.36 368.39"/>
<path d="M 632.83 370.41 637.94 386.1"/>
<path d="M 520.46 429.5 517.61 427.69 516.58 426.98 509.56 422.22"/>
<path d="M 520.46 429.5 528.2 421.22"/>
<path d="M 533.71 63.05 545.28 70.98"/>
<path d="M 95.96 300.76 111.61 302.02"/>
<path d="M 516.2 325.2 517.01 323.35 517.11 323.11 517.99 320.8"/>
<path d="M 682.2 549.02 682.92 549.1"/>
<path d="M 679.29 548.29 679.85 550.28"/>
<path d="M 496.98 51.96 496.57 48.76"/>
<path d="M 519.2 79.67 519.28 75.4 516.66 68.54"/>
<path d="M 513.41 50.84 511.38 47.29"/>
<path d="M 587.21 67.16 589.17 67.12"/>
<path d="M 598.76 66.73 600.76 66.64"/>
<path d="M 580.64 95.21 581.47 96.26"/>
<path d="M 683.23 282.41 680.63 280.6 680.45 280.49"/>
<path d="M 631.74 291.88 620.92 298"/>
<path d="M 615 302.06 621.31 298.43"/>
<path d="M 608.99 306.33 609.13 306.92"/>
<path d="M 607.83 299.26 606.27 291.79"/>
<path d="M 606.27 291.79 605.07 286.86"/>
<path d="M 595.49 248.17 601.95 276.83"/>
<path d="M 602.45 276.34 601.95 276.83"/>
<path d="M 613.13 250.11 610.95 254.92 610.77 255.3 604.14 272.04"/>
<path d="M 612.91 205.44 604.21 196.03"/>
<path d="M 567.06 180.54 562.37 177.94"/>
<path d="M 559.81 175.67 562.37 177.94"/>
<path d="M 598.13 141.49 598.2 141.85 599.53 148.67"/>
<path d="M 699.48 53.2 674.21 57.88"/>
<path d="M 699.62 53.7 713.18 51.34"/>
<path d="M 699.62 53.7 699.48 53.2"/>
<path d="M 665.72 59.98 674.28 58.51"/>
<path d="M 674.21 57.88 671.98 58.27 668.61 58.88"/>
<path d="M 668.61 58.88 664.85 59.55 657.14 60.68"/>
<path d="M 657.26 61.17 665.72 59.98"/>
<path d="M 644.89 63.15 639.84 64.37"/>
<path d="M 644.89 63.15 645 63.64"/>
<path d="M 645 63.64 651.49 62.27"/>
<path d="M 645.14 71.36 642.95 74.56"/>
<path d="M 643.37 74.78 645.14 71.36"/>
<path d="M 580 71.72 567.39 85.52"/>
<path d="M 580.47 71.76 581.06 71.15 584.39 67.28 585.24 65.98 587.73 60.68"/>
<path d="M 533.04 62.82 533.71 63.05"/>
<path d="M 533.45 62.28 516.11 60.04"/>
<path d="M 515.74 84.11 515.34 84.61"/>
<path d="M 498.06 81.57 502.52 82.17"/>
<path d="M 515.34 84.61 511.78 89"/>
<path d="M 620.92 298 609.52 304.58 608.32 305.26 603.88 307.74"/>
<path d="M 606.76 296.64 607.44 299.64"/>
<path d="M 605.63 291.9 605.88 293.18"/>
<path d="M 621.31 298.43 631.91 292.37"/>
<path d="M 579.46 321.44 578.32 322.07"/>
<path d="M 579.46 321.44 577.89 321.2"/>
<path d="M 613.13 250.11 617.01 243.43"/>
<path d="M 596 248.24 587.57 206.45 588.58 200.92"/>
<path d="M 601.95 276.83 604.45 287"/>
<path d="M 588.58 200.92 588.2 200.65"/>
<path d="M 583.43 187.27 567.06 180.54"/>
<path d="M 547.67 163.52 544.73 160.46"/>
<path d="M 559.81 175.67 556.91 172.76"/>
<path d="M 515.85 84.75 516.25 84.3 516.97 83.46"/>
<path d="M 515.34 84.61 515.85 84.75"/>
<path d="M 489.28 80 489.7 80.09"/>
<path d="M 486.97 84.86 489.7 80.09"/>
<path d="M 508.17 94.18 507.58 94.06"/>
<path d="M 507.58 94.06 507.36 94.45"/>
<path d="M 517.53 84.79 516.25 84.3 515.74 84.11"/>
<path d="M 517.53 84.79 516.97 83.46"/>
<path d="M 516.97 83.46 519.06 80.1"/>
<path d="M 518.56 79.9 515.74 84.11"/>
<path d="M 516.15 68.69 518.95 78.09 518.71 79.44"/>
<path d="M 516.05 60.48 516.11 60.04"/>
<path d="M 515.51 60.43 516.05 60.48"/>
<path d="M 443.81 182.25 439.67 189.79"/>
<path d="M 442.07 182.32 443.81 182.25"/>
<path d="M 443.74 180.93 442.07 182.32"/>
<path d="M 439.81 190.04 444.29 182.24"/>
<path d="M 444.29 182.24 462.7 177.5"/>
<path d="M 441.77 130.47 441.66 127.85"/>
<path d="M 441.24 127.86 441.39 130.47"/>
<path d="M 462.52 129.9 462.77 135.12"/>
<path d="M 462.58 136.59 463.03 136.57 464.5 136.49"/>
<path d="M 473.36 135.35 472.4 135.68 472.45 136.44"/>
<path d="M 462.58 136.59 462.64 137.86 462.64 137.88 462.72 139.76"/>
<path d="M 461.63 140.69 449.06 142.36"/>
<path d="M 454.26 140.06 456.88 140.04"/>
<path d="M 456.85 139.25 455.81 139.29"/>
<path d="M 272.15 193.36 271.68 193.35"/>
<path d="M 271.95 193.86 272.41 193.75"/>
<path d="M 271.71 193.9 271.95 193.86"/>
<path d="M 270.39 221.09 272.64 220.13"/>
<path d="M 285.17 243.93 270.39 221.09"/>
<path d="M 359.69 141.99 364.7 139.3"/>
<path d="M 352.26 127.29 356.87 127.04"/>
<path d="M 356.87 127.04 352.23 126.97"/>
<path d="M 337.66 127.62 342.01 127.55"/>
<path d="M 341.98 127.19 337.62 127.3"/>
<path d="M 333.36 127.43 330.39 127.5 328.71 127.5"/>
<path d="M 329.85 127.89 333.38 127.72"/>
<path d="M 328.92 126.27 337.13 120.61"/>
<path d="M 337.09 120.09 328.32 126.1"/>
<path d="M 513.04 333.29 513.15 333.03 513.55 331.98 516.2 325.2"/>
<path d="M 508.91 404.38 507.5 395.48"/>
<path d="M 558.56 395.42 559.93 397.74"/>
<path d="M 545 381.74 546.19 382.64"/>
<path d="M 546.25 380.95 545 381.74"/>
<path d="M 546.19 382.64 546.25 380.95"/>
<path d="M 546.19 382.64 552.49 387.86"/>
<path d="M 577.13 323.25 578.55 323.87"/>
<path d="M 111.32 271.36 103.66 276.6"/>
<path d="M 103.66 276.6 88.92 285.7"/>
<path d="M 270.79 194.79 271.71 193.9"/>
<path d="M 270.79 194.79 272.45 194.94"/>
<path d="M 285.43 244.41 285.17 243.93"/>
<path d="M 285.17 243.93 284.56 244.16"/>
<path d="M 257.89 192.25 258.65 202.91 258.67 203.49 258.72 204.61 267.45 218.17 269.57 220.95 269.82 221.32 284.56 244.16"/>
<path d="M 370.2 264.31 370.74 264.09"/>
<path d="M 336.83 317.32 339.9 313.37"/>
<path d="M 336.59 317.62 336.83 317.32"/>
<path d="M 339.9 313.37 348.52 302.23"/>
<path d="M 564.27 405.4 565.32 405.01"/>
<path d="M 562.77 405.97 564.27 405.4"/>
<path d="M 562.86 406.18 564.38 405.74"/>
<path d="M 569.28 404.29 571.69 403.58"/>
<path d="M 564.38 405.74 569.28 404.29"/>
<path d="M 560.33 406.91 562.86 406.18"/>
<path d="M 562.59 405.29 549.27 410.32"/>
<path d="M 562.81 404.42 549.27 410.32"/>
<path d="M 562.81 404.42 564.26 408.49 565.47 410.72"/>
<path d="M 380.33 338.95 373.15 323.77"/>
<path d="M 317.31 342.7 322.92 342.57 380.67 341.33"/>
<path d="M 382.95 340.91 380.61 340.96 324.15 342.17 317.59 342.33"/>
<path d="M 706.27 326.55 703.24 318.34"/>
<path d="M 687.53 359.36 697.76 358.95 716.4 354.32"/>
<path d="M 715.45 353.75 694.29 358.98 687.65 358.76"/>
<path d="M 702.45 318.31 702.94 319.64"/>
<path d="M 690.94 256.43 682.76 262.45"/>
<path d="M 633.36 291.57 664.04 274.75 668.74 272.12 669.32 271.79 673.45 269.47 677.53 266.84"/>
<path d="M 311.99 452.93 311.95 451.66"/>
<path d="M 311.05 451.43 311.99 452.93"/>
<path d="M 633.71 543.13 637.15 542.69"/>
<path d="M 637.15 542.69 633.62 542.82"/>
<path d="M 637.15 542.69 643.36 543.59"/>
<path d="M 609.35 440.14 609.79 440.07"/>
<path d="M 580.14 427.09 571.54 422.46"/>
<path d="M 670.42 475.57 671.85 475.96"/>
<path d="M 670.2 475.51 670.42 475.57"/>
<path d="M 671.85 475.96 672.35 477.86"/>
<path d="M 670.77 473.19 671.28 474.5"/>
<path d="M 616.77 327.65 613.92 323.49 611.95 318.93"/>
<path d="M 610.72 310.92 610.46 312.21"/>
<path d="M 608.44 305.79 609.63 305.12 615 302.06"/>
<path d="M 588.55 139.72 598.2 141.85"/>
<path d="M 588.55 139.72 588.76 139.43 593.46 132.82"/>
<path d="M 588.13 139.29 587.93 139.57 586.53 142.27"/>
<path d="M 588.13 139.29 572.57 134.89"/>
<path d="M 422.75 172.56 422.26 162.23"/>
<path d="M 420.69 125.53 436.12 125.16"/>
<path d="M 420.69 125.53 420.66 120.11"/>
<path d="M 315.64 141.14 320.98 136.12 321.27 135.84 327.77 129.53"/>
<path d="M 320.15 127.87 320.8 135.68 320.98 136.12 324.46 140.95"/>
<path d="M 337.62 127.3 333.36 127.43"/>
<path d="M 327.77 129.53 328.62 127.88 328.71 127.5 328.92 126.27"/>
<path d="M 328.62 127.88 329.85 127.89"/>
<path d="M 333.38 127.72 337.66 127.62"/>
<path d="M 441.06 119.2 420.55 119.63"/>
<path d="M 420.66 120.11 440.8 119.66"/>
<path d="M 420.66 120.11 420.55 119.63"/>
<path d="M 441.08 125.19 441.24 127.86"/>
<path d="M 441.08 125.19 441.59 125.2"/>
<path d="M 284.56 244.16 269.23 247.59 247.2 247.24 246.52 247.22 224.61 244.9"/>
<path d="M 224.49 245.41 246.48 247.75 247.15 247.77 269.34 248.09 284.81 244.65 285.43 244.41"/>
<path d="M 292.22 252.56 285.43 244.41"/>
<path d="M 284.56 244.16 284.81 244.65 291.6 252.91"/>
<path d="M 370.74 264.09 370.31 263.99"/>
<path d="M 370.31 263.99 370.2 264.31"/>
<path d="M 387.86 235.82 387.56 236.31"/>
<path d="M 392.39 228.76 387.86 235.82"/>
<path d="M 443.74 180.93 443.81 182.25"/>
<path d="M 443.81 182.25 444.29 182.24"/>
<path d="M 463.31 141.84 463.27 140.93 463.25 140.68 463.21 139.96 463.2 139.78 463.2 139.63 463.11 137.98 463.03 136.57 463.01 136.07 462.77 135.12"/>
<path d="M 457.97 141.32 461.68 140.97 462.77 140.94 463.27 140.93 464.5 140.79"/>
<path d="M 468.14 136.36 468.13 135.97"/>
<path d="M 464.5 136.49 467.78 136.37 468.14 136.36"/>
<path d="M 690.52 302 677.81 307.82 673.59 309.83"/>
<path d="M 709.71 292.81 699.08 297.87"/>
<path d="M 700.47 312.98 702.45 318.31"/>
<path d="M 682.3 308.28 693.82 302.61 695.32 301.96"/>
<path d="M 493.05 59.54 497.31 59.5 497.89 59.48"/>
<path d="M 497.89 59.48 497.66 58.95"/>
<path d="M 577.29 91.51 576.29 90.82 573.61 89.22"/>
<path d="M 67.41 167.09 78.57 164.68"/>
<path d="M 326.71 175.76 340.02 172.27"/>
<path d="M 703.24 318.34 701.46 313.48"/>
<path d="M 506.94 361.55 525.46 367.1 545 381.74"/>
<path d="M 571.14 422.12 570.58 421.62"/>
<path d="M 570.58 421.62 565.47 410.72"/>
<path d="M 571.54 422.46 571.14 422.12"/>
<path d="M 682.76 262.45 682.41 262.71"/>
<path d="M 682.76 263.01 687.99 259.17"/>
<path d="M 307.49 342.91 310.73 342.84"/>
<path d="M 443.67 179.71 443.74 180.93"/>
<path d="M 351.45 297.33 350.26 300.05 348.52 302.23"/>
<path d="M 351.54 296.23 351.45 297.33"/>
<path d="M 357.27 306.91 350.26 300.05"/>
<path d="M 633.21 457.83 622.13 452.43 609.35 440.14"/>
<path d="M 443.45 164.22 443.08 156.41"/>
<path d="M 442.99 164.23 443.44 174.54"/>
<path d="M 142.53 249.06 121.02 262.08 111.32 271.36"/>
<path d="M 605.88 293.18 606.76 296.64"/>
<path d="M 547.95 93.94 555.47 94.36 556.71 93.57 556.83 91.92 557.12 91.27"/>
<path d="M 537.51 271.9 546.79 248.29"/>
<path d="M 322.25 261.21 349.09 260.86 370.2 264.31"/>
<path d="M 292.23 118.04 282.94 112.46 266.07 104.9"/>
<path d="M 604.45 287 605.63 291.9"/>
<path d="M 605.07 286.86 602.45 276.34"/>
<path d="M 586.56 290.91 576.38 308.13"/>
<path d="M 653.02 470.03 650.2 468.31"/>
<path d="M 528.15 295.29 528.18 295.21"/>
<path d="M 528.37 294.71 529.96 290.69"/>
<path d="M 528.18 295.21 528.37 294.71"/>
<path d="M 575.21 328.86 575.78 328.13"/>
<path d="M 308.91 444.25 305.11 432.6"/>
<path d="M 184.93 228.07 182.2 228.91"/>
<path d="M 538.78 192.59 538.74 192.21"/>
<path d="M 542.98 190.18 538.74 192.21"/>
<path d="M 538.74 192.21 538.39 192.31 534.03 195.77"/>
<path d="M 538.78 192.59 542.98 190.18"/>
<path d="M 326.42 162.48 330.24 160.09 330.84 159.72 359.69 141.99"/>
<path d="M 325.76 162.89 326.42 162.48"/>
<path d="M 614.4 206.46 612.91 205.44"/>
<path d="M 604.14 272.04 602.45 276.34"/>
<path d="M 604.21 196.03 603.42 193.26"/>
<path d="M 640.58 38.24 616.96 53.45 597.56 58.9"/>
<path d="M 443.96 174.53 443.45 164.22"/>
<path d="M 443.44 174.54 443.67 179.71"/>
<path d="M 196.16 224.73 189.04 226.84"/>
<path d="M 157.69 43.18 169.9 51.94"/>
<path d="M 609.79 440.07 592.06 430.83 580.14 427.09"/>
<path d="M 598.09 280.07 586.56 290.91"/>
<path d="M 321.36 260.84 309.7 260.3 292.22 252.56"/>
<path d="M 272.84 191.9 271.68 193.35"/>
<path d="M 274.04 190.1 272.84 191.9"/>
<path d="M 274.31 189.71 274.04 190.1"/>
<path d="M 274.48 189.44 274.31 189.71"/>
<path d="M 477.09 392.55 480.06 392.77"/>
<path d="M 450.81 390.61 477.09 392.55"/>
<path d="M 477.11 392.26 450.84 390.32"/>
<path d="M 480.09 392.48 477.11 392.26"/>
<path d="M 275.76 187.57 274.48 189.44"/>
<path d="M 276.09 187.7 276.82 186.63"/>
<path d="M 276.82 186.63 280.34 181.41 293.43 162.33 315.64 141.14"/>
<path d="M 276.49 186.5 275.76 187.57"/>
<path d="M 503.9 521.08 493.9 513.28 480.64 506.92"/>
<path d="M 503.6 521.32 503.95 521.6"/>
<path d="M 503.95 521.6 518.74 533.53"/>
<path d="M 504.24 521.35 503.9 521.08"/>
<path d="M 573.69 558.4 581.93 559.29 602.24 555.84 612.36 552.21"/>
<path d="M 573.81 558.04 559.94 555.16"/>
<path d="M 530.8 200.19 534.3 200.31 534.11 202.78 530.9 203.55 530.14 202.37 529.48 200.4"/>
<path d="M 527.39 203.27 523.52 208.1"/>
<path d="M 527.34 202.95 523.33 202.01 524.06 199.69 527.67 200.24 527.94 201.21 528.51 202.99 531.24 209.49"/>
<path d="M 530.42 210.05 532.37 211.91"/>
<path d="M 527.07 206.25 530.42 210.05"/>
<path d="M 534.91 195.32 538.98 193.72"/>
<path d="M 677.19 266.5 633.2 291.07"/>
<path d="M 677.53 266.84 682.76 263.01"/>
<path d="M 310.67 415.7 306.26 416.96"/>
<path d="M 306.21 417.31 310.67 415.7"/>
<path d="M 323.72 455.91 323.45 456.28"/>
<path d="M 316.47 454.09 318.65 454.05"/>
<path d="M 329.59 458.31 329.69 457.89"/>
<path d="M 316.98 453.26 317.14 452.97"/>
<path d="M 439.2 182.42 442.07 182.32"/>
<path d="M 662.32 448.12 644.79 400.24 633.83 371.95 633.51 370.33 633.38 369.72"/>
<path d="M 661.66 448.27 663.37 452.95"/>
<path d="M 621.26 340.95 625.72 337.64"/>
<path d="M 625.72 337.64 624.77 339.35"/>
<path d="M 596.82 359.63 603.39 354.35"/>
<path d="M 596.47 359.33 614.17 345.24"/>
<path d="M 595.71 358.82 590.83 362.72 578.47 372.53"/>
<path d="M 543.32 92.6 545.92 92.39"/>
<path d="M 507.48 128.7 509.85 134.24"/>
<path d="M 505.22 121.84 505.73 123.31"/>
<path d="M 444.77 141.5 443.04 142.2"/>
<path d="M 424.43 145.82 431.39 146.2"/>
<path d="M 412.35 144.98 399.54 147.94"/>
<path d="M 386.83 64.77 376.84 65.2"/>
<path d="M 361.43 78.46 361.74 84.53"/>
<path d="M 697.16 605.94 680.73 553.23"/>
<path d="M 560.81 81.79 550.88 75.31"/>
<path d="M 560.58 82 560.91 82.21"/>
<path d="M 550.88 75.31 549.48 74.2"/>
<path d="M 550.68 75.5 560.58 82"/>
<path d="M 228.99 91.04 232.02 92.17"/>
<path d="M 232.02 92.17 229.7 91.01"/>
<path d="M 232.02 92.17 238.56 94.57"/>
<path d="M 266.07 104.9 264.37 104.1"/>
<path d="M 172.06 53.45 188.62 65.44"/>
<path d="M 169.9 51.94 172.06 53.45"/>
<path d="M 216.53 84.5 226.45 89.98"/>
<path d="M 229.7 91.01 226.68 89.76"/>
<path d="M 576.38 308.13 574.06 313.97 577.89 321.2"/>
<path d="M 208.59 79.74 216.53 84.5"/>
<path d="M 686.86 472.12 688.1 470.88"/>
<path d="M 688.1 470.88 686.45 471.85 684.82 472.8 682.52 474.14 680.98 475.03 678.64 475.89 672.36 476.1"/>
<path d="M 666.41 360.86 669.76 359.44"/>
<path d="M 226.68 89.76 216.53 84.5"/>
<path d="M 226.45 89.98 228.99 91.04"/>
<path d="M 442.62 156.43 442.99 164.23"/>
<path d="M 443.08 156.41 443.08 156.31"/>
<path d="M 443.08 156.31 442.66 147.59 442.64 147.11 442.53 145.02 442.41 142.98 442.33 140.85 442.22 138.72 442.15 137.19 441.77 130.47"/>
</g>
</svg>